<svg xmlns="http://www.w3.org/2000/svg" width="270" height="400" viewBox="0 0 270 400" xmlns:xlink="http://www.w3.org/1999/xlink">
  <defs>
    <rect id="e" width="240" height="369.412" rx="25"/>
    <filter id="d" width="200%" height="200%" x="-50%" y="-50%" filterUnits="objectBoundingBox">
      <feOffset in="SourceAlpha" result="shadowOffsetOuter1"/>
      <feGaussianBlur stdDeviation="7.5" in="shadowOffsetOuter1" result="shadowBlurOuter1"/>
      <feColorMatrix values="0 0 0 0 0.847058824 0 0 0 0 0.847058824 0 0 0 0 0.847058824 0 0 0 1 0" in="shadowBlurOuter1"/>
    </filter>
    <rect id="a" width="235.294" height="364.706" x="4.706" y="4.706" rx="25"/>
    <filter id="f" width="200%" height="200%" x="-50%" y="-50%" filterUnits="objectBoundingBox">
      <feOffset in="SourceAlpha" result="shadowOffsetOuter1"/>
      <feMorphology radius="1" in="SourceAlpha" result="shadowInner"/>
      <feOffset in="shadowInner" result="shadowInner"/>
      <feComposite in="shadowOffsetOuter1" in2="shadowInner" operator="out" result="shadowOffsetOuter1"/>
      <feGaussianBlur stdDeviation="7.5" in="shadowOffsetOuter1" result="shadowBlurOuter1"/>
      <feColorMatrix values="0 0 0 0 0.8 0 0 0 0 0.8 0 0 0 0 0.8 0 0 0 1 0" in="shadowBlurOuter1"/>
    </filter>
    <mask id="g" width="235.294" height="364.706" x="0" y="0" fill="white">
      <use xlink:href="#a"/>
    </mask>
    <rect id="b" width="235.294" height="364.706" x="1.569" y="1.569" rx="25"/>
    <mask id="h" width="235.294" height="364.706" x="0" y="0" fill="white">
      <use xlink:href="#b"/>
    </mask>
    <rect id="c" width="235.294" height="364.706" x="3.137" y="3.137" rx="25"/>
    <mask id="i" width="235.294" height="364.706" x="0" y="0" fill="white">
      <use xlink:href="#c"/>
    </mask>
    <linearGradient id="k" x1="50%" x2="50%" y1="0%" y2="100%">
      <stop stop-color="#A0A4EC" offset="0%"/>
      <stop stop-color="#676BD3" offset="100%"/>
    </linearGradient>
    <rect id="j" width="235.294" height="364.706" rx="25"/>
  </defs>
  <g fill="none" fill-rule="evenodd" transform="translate(15 15)">
    <use fill="black" filter="url(#d)" xlink:href="#e"/>
    <use fill="black" filter="url(#f)" xlink:href="#a"/>
    <use stroke="#676BD3" stroke-width="2" mask="url(#g)" xlink:href="#a"/>
    <use stroke="#676BD3" stroke-width="2" mask="url(#h)" xlink:href="#b"/>
    <use stroke="#676BD3" stroke-width="2" mask="url(#i)" xlink:href="#c"/>
    <use fill="#676BD3" xlink:href="#j"/>
    <use fill="url(#k)" style="mix-blend-mode:multiply" xlink:href="#j"/>
    <path fill="#FFFFFF" d="M117.647059,216.470588 C151.433891,216.470588 178.823529,189.080949 178.823529,155.294118 C178.823529,121.507286 151.433891,94.1176471 117.647059,94.1176471 C83.8602271,94.1176471 56.4705882,121.507286 56.4705882,155.294118 C56.4705882,189.080949 83.8602271,216.470588 117.647059,216.470588 Z M95.6449948,142.629515 C99.3793289,142.629515 102.406605,139.602239 102.406605,135.867905 C102.406605,132.133571 99.3793289,129.106295 95.6449948,129.106295 C91.9106608,129.106295 88.8833849,132.133571 88.8833849,135.867905 C88.8833849,139.602239 91.9106608,142.629515 95.6449948,142.629515 Z M139.219814,142.629515 C142.954148,142.629515 145.981424,139.602239 145.981424,135.867905 C145.981424,132.133571 142.954148,129.106295 139.219814,129.106295 C135.48548,129.106295 132.458204,132.133571 132.458204,135.867905 C132.458204,139.602239 135.48548,142.629515 139.219814,142.629515 Z M83.6450291,164.013312 C83.6450291,173.726218 94.0164255,191.360256 118.093411,191.360256 C138.089001,191.360256 153.099341,172.446729 153.099341,163.198568 L145.138634,163.198568 C145.138634,163.198568 138.403646,183.056028 118.093411,183.056028 C94.8029642,183.056028 91.4905999,164.013312 91.4905999,164.013312 L83.6450291,164.013312 Z" transform="rotate(-105 117.647 155.294)"/>
  </g>
</svg>
