<?xml version="1.0" encoding="UTF-8" standalone="no"?>
<svg width="446px" height="297px" viewBox="0 0 446 297" version="1.1" xmlns="http://www.w3.org/2000/svg" xmlns:xlink="http://www.w3.org/1999/xlink" xmlns:sketch="http://www.bohemiancoding.com/sketch/ns">
    <!-- Generator: Sketch 3.5.1 (25234) - http://www.bohemiancoding.com/sketch -->
    <title>proj-jeff</title>
    <desc>Created with Sketch.</desc>
    <defs>
        <rect id="path-1" x="0" y="0" width="446" height="297" rx="18"></rect>
    </defs>
    <g id="Welcome" stroke="none" stroke-width="1" fill="none" fill-rule="evenodd" sketch:type="MSPage">
        <g id="Main/Work" sketch:type="MSArtboardGroup" transform="translate(-448.000000, -1278.000000)">
            <g id="Work" sketch:type="MSLayerGroup" transform="translate(-485.000000, 863.000000)">
                <g id="proj-jeff" transform="translate(933.000000, 415.000000)">
                    <mask id="mask-2" sketch:name="Mask" fill="white">
                        <use xlink:href="#path-1"></use>
                    </mask>
                    <use id="Mask" fill-opacity="0.0157136099" fill="#FFFFFF" sketch:type="MSShapeGroup" xlink:href="#path-1"></use>
                    <rect id="Rectangle-99-Copy-6" fill="#FFFFFF" sketch:type="MSShapeGroup" mask="url(#mask-2)" x="0" y="30.6223602" width="446" height="266.37764"></rect>
                    <rect id="Rectangle-99-Copy-11" fill="#5A5A59" sketch:type="MSShapeGroup" mask="url(#mask-2)" x="99.8892562" y="75.6335404" width="44.231405" height="9.59254658"></rect>
                    <rect id="Rectangle-99-Copy-12" fill="#8E8E8E" sketch:type="MSShapeGroup" mask="url(#mask-2)" x="51.9719008" y="75.6335404" width="44.231405" height="9.59254658"></rect>
                    <rect id="Rectangle-99-Copy-8" fill="#8E8E8E" sketch:type="MSShapeGroup" mask="url(#mask-2)" x="51.6033058" y="88.1776398" width="21.780639" height="5.74077034"></rect>
                    <rect id="Rectangle-99-Copy-13" fill="#8E8E8E" sketch:type="MSShapeGroup" mask="url(#mask-2)" x="75.1692431" y="88.1776398" width="21.780639" height="5.74077034"></rect>
                    <rect id="Rectangle-99-Copy-14" fill="#8E8E8E" sketch:type="MSShapeGroup" mask="url(#mask-2)" x="98.7351803" y="88.1776398" width="21.780639" height="5.74077034"></rect>
                    <rect id="Rectangle-99-Copy-15" fill="#8E8E8E" sketch:type="MSShapeGroup" mask="url(#mask-2)" x="122.301118" y="88.1776398" width="21.780639" height="5.74077034"></rect>
                    <g id="SImple-Painting" mask="url(#mask-2)" sketch:type="MSShapeGroup">
                        <g transform="translate(315.517355, 164.918012)">
                            <path d="M45.7195891,18.8305075 L133.814911,127.128368 L113.035529,141.157511 L45.7195891,18.8305075 L45.7195891,18.8305075 Z" id="Triangle-3" fill="#586D40"></path>
                            <path d="M103.753409,2.17826 L140.225456,136.978807 L115.541778,141.335327 L103.753409,2.17826 L103.753409,2.17826 Z" id="Triangle-3-Copy" fill="#586D40"></path>
                            <path d="M27.6379727,69.1248936 L143.517221,146.909682 L127.743644,166.406875 L27.6379727,69.1248936 L27.6379727,69.1248936 Z" id="Triangle-3-Copy-2" fill="#586D40"></path>
                            <path d="M4.02591872,103.834812 L140.578414,132.505373 L133.250274,156.497337 L4.02591872,103.834812 L4.02591872,103.834812 Z" id="Triangle-3-Copy-3" fill="#586D40"></path>
                            <path d="M3.27504166,102.998497 L133.152403,152.537656 L131.081231,157.668842 L3.27504166,102.998497 L3.27504166,102.998497 Z" id="Triangle-3-Copy-4" fill="#ABB987"></path>
                            <path d="M25.4346406,67.2656109 L130.552078,158.279934 L126.852505,162.392617 L25.4346406,67.2656109 L25.4346406,67.2656109 Z" id="Triangle-3-Copy-5" fill="#ABB987"></path>
                            <path d="M45.8936166,19.5082882 L115.680775,139.81932 L110.845068,142.502335 L45.8936166,19.5082882 L45.8936166,19.5082882 Z" id="Triangle-3-Copy-6" fill="#ABB987"></path>
                            <path d="M103.854468,1.34478929 L118.719602,139.666261 L113.211716,140.148595 L103.854468,1.34478929 L103.854468,1.34478929 Z" id="Triangle-3-Copy-7" fill="#ABB987"></path>
                            <ellipse id="Oval-43" fill="#F12603" cx="107.629752" cy="109.207453" rx="20.6413223" ry="20.6608696"></ellipse>
                            <ellipse id="Oval-43-Copy" fill="#EFBBA9" cx="103.022314" cy="113.081366" rx="9.03057851" ry="9.03913043"></ellipse>
                            <ellipse id="Oval-43-Copy-7" fill="#FCBE31" cx="79.4322314" cy="107.178261" rx="6.08181818" ry="6.08757764"></ellipse>
                            <ellipse id="Oval-43-Copy-3" fill="#CADBE5" cx="76.4834711" cy="121.198137" rx="2.76446281" ry="2.76708075"></ellipse>
                            <ellipse id="Oval-43-Copy-4" fill="#CADBE5" cx="82.0123967" cy="118.615528" rx="2.76446281" ry="2.76708075"></ellipse>
                            <ellipse id="Oval-43-Copy-5" fill="#CADBE5" cx="86.4355372" cy="123.042857" rx="2.76446281" ry="2.76708075"></ellipse>
                            <ellipse id="Oval-43-Copy-6" fill="#CADBE5" cx="80.9066116" cy="125.99441" rx="2.76446281" ry="2.76708075"></ellipse>
                            <ellipse id="Oval-43-Copy-2" fill="#EFD867" cx="121.083471" cy="92.789441" rx="7.55619835" ry="7.56335404"></ellipse>
                        </g>
                    </g>
                </g>
            </g>
        </g>
    </g>
</svg>