<svg xmlns="http://www.w3.org/2000/svg" width="150.03" height="290.83" viewBox="0 0 150.03 290.83"><title>Asset 5</title><path d="M45.91,195.87c-.79,2-1.54,4.09-2.39,6.11-2.16,5.16-4.72,7-8.26,6.12-3.92-1-7.24-6.12-6.57-10.58a29.34,29.34,0,0,1,2-6.75c1.62-3.91,1-7.55-.35-11.41A89.48,89.48,0,0,1,27,166.81c-1.78-9-3-18.1-5-27-2-8.5-4.58-16.87-7.23-25.19-1.7-5.33-4.11-10.43-6-15.72S5.26,88.46,3.93,83.13c-1.11-4.44-1.7-9-2.36-13.56A133.22,133.22,0,0,1,.18,42.74c1.1-19.42,11.93-34,29.54-40.79C36.72-.74,44.19-.19,51.33.89c5,.75,8.33,5.15,11.46,8.95,7.44,9,11.67,19.09,10.9,31.21-1,16.34-1.5,32.69-6.51,48.51-2.33,7.37-4,15-6.28,22.35-1.11,3.62-3.11,7-4.34,10.54A111.3,111.3,0,0,0,53,135c-.85,3.93-1.08,8-1.85,12a7.78,7.78,0,0,1-2.06,4c-2.27,2.11-2.51,4.62-2.28,7.39a65,65,0,0,0,6.3,23.23c1.58,3.24,4.21,6,6.6,8.79,2.77,3.23,2.3,10-1.1,12.61-2.57,2-6.79.74-8.94-2.63-1-1.54-1.93-3.11-2.89-4.67Z" fill="#b5b5b5"/><path d="M150,44.86c.27,14.84-2.33,26.66-7.19,37.85-3.15,7.26-7.38,14.05-11.3,21-6.73,11.86-13.74,23.58-20.32,35.52-1.69,3.07-2.25,6.77-3.31,10.18a8.47,8.47,0,0,1-.19,1c-5,10.81-4.15,22.72-6.48,34a76.51,76.51,0,0,1-2.48,10.09c-2.14,6.06-5.4,7.34-11.07,4.44-2.36-1.21-4.2-1.67-6.84-.32-4.41,2.26-9.55-1.37-9.29-6.33A37.64,37.64,0,0,1,72.91,185c2.32-9.11,4.78-18.19,7-27.32a6.87,6.87,0,0,0-.47-4.22A21.09,21.09,0,0,1,78,140.34c1.65-8.7,3.65-17.33,5.22-26,2.85-15.78,2.87-31.61,1.35-47.57-1-10.67-2-21.49.74-32.16.76-2.92,1-6,1.66-8.91A31.49,31.49,0,0,1,100.44,5.49,23.4,23.4,0,0,1,110.78,2c16.92-1.74,34.61,8.45,36.54,27.14C148,35.25,149.38,41.28,150,44.86Z" fill="#b5b5b5"/><path d="M70,45.39a129.45,129.45,0,0,1-6.56,44.69c-1.27,3.93-1.77,8.1-2.86,12.09-1.14,4.2-2.11,8.55-4,12.44A85.19,85.19,0,0,0,48.69,144a14.42,14.42,0,0,1-.35,2.33c-.78,3-3.37,3.79-5.56,1.65-1-1-1.8-2.29-2.75-3.4-1.46-1.72-2.65-1.41-3.48.59-.43,1-.74,2.12-1.12,3.17-.88,2.43-2,2.89-4.32,1.64-3.24-1.75-4.42-4.89-5.34-8.19-2.83-10.14-5.24-20.43-8.66-30.37-2.4-7-5.79-13.55-7.85-20.71A173.91,173.91,0,0,1,3.63,61.42,68.75,68.75,0,0,1,6.51,32.87c1.88-5.92,3.55-12.16,7.92-16.93C22.16,7.5,31.62,2.86,43.3,3.58c4.46.28,9,.34,12.48,3.9,4.92,5,9.47,10.22,11.57,17.07A62.55,62.55,0,0,1,69.89,35C70.32,38.4,70,41.92,70,45.39Z" fill="#995a16"/><path d="M40.13,150.79c2.88,1,3.38,3.74,3.42,6.83.13,11,4.08,20.79,9.6,30,1.13,1.89,3,3.36,4.41,5.06,1.83,2.14,1.52,4.5-.73,6s-3.59,1-5.21-1.49A21.1,21.1,0,0,0,48.36,193c-2.22-2-4.45-1.31-5.57,1.45-.84,2.07-1.38,4.29-2.37,6.28s-2.48,4-5.23,3.27-3.31-3.22-3.26-5.59a14.85,14.85,0,0,1,1.22-5.18c2.15-5.24,2.6-10.43-.21-15.54-2.3-4.18-2.55-8.77-3-13.34-.14-1.56-.21-3.14-.28-4.7-.08-1.77-.11-3.54-.16-5.31,1.61,0,3.35.36,4.79-.14C36.21,153.52,37.86,152.16,40.13,150.79Z" fill="#eee"/><path d="M115.38,5.37c13.81-.89,24.14,8.89,27.57,20.08,3.7,12.09,5.13,24.59,2.57,37.49a84,84,0,0,1-12.21,30.67c-3.95,6-7,12.5-10.61,18.73-4.46,7.78-9.43,15.31-13.36,23.35-2.62,5.37-3.75,11.46-5.68,17.19a35,35,0,0,1-3,7.06c-2.31,3.8-5.4,4.08-8.51.84-1.62-1.7-3-3.22-5.68-2.77-.62.1-1.72-.9-2.15-1.65a23.51,23.51,0,0,1-2.77-15.6C82.94,132,84.67,123.34,86,114.6c2.56-16.24,3.49-32.5,1.29-48.92a102.7,102.7,0,0,1,2.78-41C92.88,14.54,100,9,109.35,5.6a10,10,0,0,1,3-.22C113.35,5.35,114.37,5.37,115.38,5.37Z" fill="#995a16"/><path d="M82.46,160.09c3.46,1.62,6.18,3,9,4.18a21.47,21.47,0,0,0,6,1.57c1.76.16,2.54.73,2.32,2.42-1.08,8.09-1.93,16.23-3.41,24.24-.81,4.38-3,5.08-7.23,3.44a10.08,10.08,0,0,1-2.38-1.25,4.93,4.93,0,0,0-5.89-.31c-3.8,2-6.23.49-5.79-3.8a15,15,0,0,1,2.36-6.16,20.13,20.13,0,0,0,3.33-10.7C80.81,169.41,81.77,165.13,82.46,160.09Z" fill="#eee"/><path d="M86.9,187c1.91.72,3.35,1.11,4.31,2.34a2.37,2.37,0,0,1,.18,2.72c-1.17.4-1.46-.63-2.18-1s-1.57-.69-2.32-1.11-2.49-.64-2.49-1.55C84.39,187.25,84.74,186.63,86.9,187Z" fill="#b5b5b5"/><path d="M15.18,240.32c1.51-3.12,4.23-1.55,7.36.34a212.44,212.44,0,0,0,22.8,12c3.48,1.57,5.37,3.31,5.39,7.06a30.07,30.07,0,0,0,.31,3.55,25.24,25.24,0,0,0,9.21,17.17c7.42,6.1,16.27,8.46,25.31,10.22,6,1.18,14.14-3.17,16.6-8.21,4.1-8.42,3.79-17.2,1.92-26.05-.71-3.33-1.91-6.57-2.46-9.93a6,6,0,0,1,1.15-4.32c4.29-5.1,9.38-9.6,13.1-15.06,3.28-4.82,6.52-6.7,11.87-4.06a3.68,3.68,0,0,0,1.29.18c2.6.2,3.1-1.24,3.45-2.81,0-1.62-1.48-2.35-2.53-2.8-3-1.27-6.29-1.81-9.16-3.26-3.55-1.79-6.72-4.33-10.2-6.28-.92-.51-2.52-1-3.59-.05-1.43,1.21,0,2.47.66,3.24a50.66,50.66,0,0,0,6,6.53c1.55,1.38,2,2.7.66,4.14C107.9,228.64,102,236,94.75,241.8a41.38,41.38,0,0,1-27.62,9.07c-15.15.68-23.46-3.48-40.1-12.19-4.11-2.15-7.22-4.92-4.85-10.32.33-.76,1-2,.26-2.67A3.09,3.09,0,0,0,18.54,227c-3.08,4.7-6.17,9.42-8.76,14.4-.56,1.07-.22,3.25,1.09,3.69S15.18,240.32,15.18,240.32Z" fill="#ce3a3a"/><path d="M62.09,256.39c10.28-.74,21.19-1.77,30.92-7.82,3.32-2.07,4.37-1.56,5.58,1.9,2.77,7.95,4.35,15.93,2.65,24.46-1.53,7.68-7.65,12.76-15.41,11.33-8.62-1.59-17.06-3.84-24.07-9.69-5.62-4.69-7.33-11-7.57-17.82,0-.82,1.63-2.14,2.73-2.46C58.27,255.88,59.86,256.29,62.09,256.39Z" fill="#ff6161"/><path d="M76.33,264.8c-.5-1.13-1.12-2.57,1.54-2.91a2.74,2.74,0,0,1,2.45,2,58.35,58.35,0,0,1,2.58,9.31c.16.92-.9,3.14-1.7,3.14-1.17.27-1.62-1.23-1.91-2C78.21,271.26,77.36,268.15,76.33,264.8Z" fill="#ce3a3a"/></svg>