<?xml version="1.0" standalone="no"?>
<!DOCTYPE svg PUBLIC "-//W3C//DTD SVG 20010904//EN"
 "http://www.w3.org/TR/2001/REC-SVG-20010904/DTD/svg10.dtd">
<svg version="1.0" xmlns="http://www.w3.org/2000/svg"
 width="260.000000pt" height="260.000000pt" viewBox="0 0 260.000000 260.000000"
 preserveAspectRatio="xMidYMid meet">
<metadata>
Created by potrace 1.11, written by Peter Selinger 2001-2013
</metadata>
<g transform="translate(0.000000,260.000000) scale(0.100000,-0.100000)"
fill="#000000" stroke="none">
<path d="M0 1300 l0 -1300 1300 0 1300 0 0 1300 0 1300 -1300 0 -1300 0 0
-1300z m1770 534 c17 -45 -9 -62 -28 -19 -16 34 -15 45 3 45 9 0 20 -12 25
-26z m-623 -60 c9 -23 -13 -40 -32 -24 -12 10 -13 16 -4 26 15 18 28 18 36 -2z
m-106 -46 c10 -18 8 -24 -7 -35 -16 -11 -21 -11 -38 6 -16 17 -17 23 -6 35 18
22 37 20 51 -6z m39 -46 c0 -10 79 -116 90 -120 4 -1 13 11 20 28 22 52 32 46
29 -18 -2 -40 2 -66 11 -77 13 -16 15 -16 21 2 4 10 8 42 8 71 1 28 4 52 7 52
17 0 205 -161 202 -172 -2 -5 -29 -21 -61 -36 l-59 -27 44 -35 c23 -19 37 -27
30 -18 -12 15 -8 20 38 43 38 19 55 23 65 15 19 -16 62 -82 70 -107 5 -20 3
-23 -22 -23 -15 0 -52 14 -81 30 -30 16 -49 23 -42 15 6 -8 20 -17 30 -20 11
-4 16 -12 13 -23 -5 -19 -93 -82 -115 -82 -7 -1 -42 -23 -78 -50 -36 -27 -92
-64 -125 -81 -33 -17 -82 -46 -110 -65 -27 -19 -78 -49 -113 -66 -57 -28 -65
-30 -88 -17 -25 13 -54 56 -54 79 0 6 16 -5 35 -25 39 -38 51 -41 77 -21 16
12 14 16 -23 52 -62 60 -64 67 -38 140 13 35 25 64 28 64 3 0 18 -20 32 -44
15 -24 47 -58 73 -75 l46 -32 25 19 24 19 -50 43 c-28 23 -67 67 -87 97 l-36
55 17 47 c9 26 24 65 32 85 l16 38 28 -43 c33 -52 115 -135 171 -174 l40 -28
19 24 19 24 -97 95 c-54 52 -110 116 -124 141 l-27 46 21 43 c12 24 24 61 27
82 2 21 9 38 13 38 5 0 9 -3 9 -8z m414 -64 c3 -7 7 -32 10 -55 5 -34 3 -43
-8 -43 -18 0 -39 70 -30 94 7 19 23 21 28 4z m296 -157 c0 -5 -22 -12 -50 -15
-27 -3 -74 -9 -102 -12 -69 -8 -57 3 20 19 79 16 132 19 132 8z m-116 -208
c-26 -19 -39 -16 -52 11 -9 20 -7 25 11 34 18 8 25 6 40 -11 18 -20 18 -22 1
-34z m105 -31 c7 -14 5 -21 -11 -31 -17 -10 -22 -10 -33 6 -12 15 -12 20 2 31
23 16 31 15 42 -6z m-92 -90 c11 -7 8 -52 -4 -52 -20 0 -40 23 -36 40 6 21 20
25 40 12z m33 -123 c13 -24 13 -24 -17 -33 -16 -5 -23 -2 -28 15 -5 14 -2 25
6 30 21 13 27 11 39 -12z"/>
</g>
</svg>
