<?xml version="1.0" standalone="no"?>
<!DOCTYPE svg PUBLIC "-//W3C//DTD SVG 20010904//EN"
 "http://www.w3.org/TR/2001/REC-SVG-20010904/DTD/svg10.dtd">
<svg version="1.0" xmlns="http://www.w3.org/2000/svg"
 width="16.000000pt" height="16.000000pt" viewBox="0 0 16.000000 16.000000"
 preserveAspectRatio="xMidYMid meet">
<metadata>
Created by potrace 1.11, written by Peter Selinger 2001-2013
</metadata>
<g transform="translate(0.000000,16.000000) scale(0.004692,-0.004692)"
fill="#000000" stroke="none">
<path d="M0 1705 l0 -1705 1705 0 1705 0 0 1705 0 1705 -1705 0 -1705 0 0
-1705z m1545 1147 c316 -87 535 -311 601 -619 l17 -81 46 -12 c25 -6 78 -27
119 -45 227 -105 389 -303 453 -555 21 -82 18 -317 -5 -400 -83 -303 -296
-514 -596 -591 -78 -20 -115 -22 -462 -26 -336 -4 -380 -3 -411 12 -63 30 -67
49 -67 354 l0 271 49 0 c105 0 262 32 364 75 16 7 17 -5 17 -170 l0 -177 178
5 c148 3 187 8 237 26 74 26 148 81 197 146 122 162 112 446 -22 599 -32 36
-116 96 -134 96 -6 0 -20 -21 -30 -48 -25 -60 -94 -168 -142 -222 -77 -85
-209 -172 -320 -211 -127 -44 -186 -49 -575 -49 -401 0 -413 1 -437 55 -18 38
-17 1500 1 1535 7 14 28 33 47 43 32 17 64 18 415 14 353 -3 386 -5 460 -25z"/>
<path d="M1040 2050 l0 -460 100 0 100 0 0 240 c0 351 -8 340 252 340 l178 0
11 -27 c19 -48 23 -202 6 -271 -18 -78 -6 -69 23 17 16 48 21 88 21 160 0 201
-79 339 -236 412 -83 39 -145 49 -311 49 l-144 0 0 -460z"/>
</g>
</svg>
