<svg xmlns="http://www.w3.org/2000/svg" width="435" height="435" viewBox="0 0 435 435">
  <defs>
    <linearGradient id="a" x1="53.661%" x2="38.609%" y1="24.125%" y2="107.156%">
      <stop stop-color="#F5515F" offset="0%"/>
      <stop stop-color="#9F031B" offset="100%"/>
    </linearGradient>
  </defs>
  <path fill="url(#a)" fill-rule="evenodd" d="M1157.78855,1744.71056 C1277.59127,1744.71056 1374.71056,1647.59127 1374.71056,1527.78855 C1374.71056,1407.98583 1277.59127,1310.86654 1157.78855,1310.86654 C1037.98583,1310.86654 940.866536,1407.98583 940.866536,1527.78855 C940.866536,1647.59127 1037.98583,1744.71056 1157.78855,1744.71056 Z M1079.77274,1482.88189 C1093.01409,1482.88189 1103.74833,1472.14765 1103.74833,1458.9063 C1103.74833,1445.66494 1093.01409,1434.9307 1079.77274,1434.9307 C1066.53138,1434.9307 1055.79715,1445.66494 1055.79715,1458.9063 C1055.79715,1472.14765 1066.53138,1482.88189 1079.77274,1482.88189 Z M1234.2821,1482.88189 C1247.52345,1482.88189 1258.25769,1472.14765 1258.25769,1458.9063 C1258.25769,1445.66494 1247.52345,1434.9307 1234.2821,1434.9307 C1221.04075,1434.9307 1210.30651,1445.66494 1210.30651,1458.9063 C1210.30651,1472.14765 1221.04075,1482.88189 1234.2821,1482.88189 Z M1050.78608,1558.34078 C1050.78608,1573.38102 1074.44272,1641.65413 1159.37124,1640.81633 C1236.12968,1640.05913 1269.10336,1568.99902 1269.10336,1555.95035 L1256.06522,1557.60145 C1256.06522,1557.60145 1234.91598,1627.95496 1159.61558,1628.6152 C1073.63806,1629.36907 1065.04191,1558.24302 1065.04191,1558.24302 L1050.78608,1558.34078 Z" transform="rotate(37 2645.377 -531.893)" opacity=".2"/>
</svg>
