<svg xmlns="http://www.w3.org/2000/svg" width="491" height="256" viewBox="0 0 491 256">
  <g fill="#676BD3" fill-rule="evenodd">
    <g transform="translate(.314 219.93)">
      <path d="M174.781147,35.3001781 L170.440506,35.3001781 L169.789074,33.6378764 C167.633825,35.0664104 164.116684,36.0228089 160.493203,36.0228089 C148.736462,36.0228089 141.503316,28.7663916 141.503316,18.0653508 C141.503316,6.57602356 150.299729,0 161.071787,0 C166.359851,0 169.382139,1.12869237 171.381229,2.0595813 L171.055513,9.24992465 C169.319759,8.09363179 166.24472,6.86499222 161.650791,6.86499222 C154.670095,6.86499222 149.714446,11.1288483 149.714446,18.0293866 C149.714446,24.5376635 154.163101,29.1218524 160.854923,29.1218524 C163.423387,29.1218524 165.205612,28.7454822 167.14902,27.7485194 L167.14902,21.9678915 L159.84219,21.9678915 L159.84219,15.8974585 L174.781147,15.8974585 L174.781147,35.3001781 L174.781147,35.3001781 Z"/>
      <rect width="7.885" height="34.686" x="67.28" y=".687"/>
      <polygon points="62.577 35.373 54.692 35.373 54.692 20.053 40.042 20.053 40.042 35.373 32.157 35.373 32.193 .687 40.042 .687 40.042 13.296 54.692 13.296 54.692 .795 62.577 .795"/>
      <path d="M215.004088 17.9570398C215.004088 29.3025101 205.924243 36.0228089 196.085791 36.0228089 185.415467 36.0228089 176.806193 29.0495057 176.806193 17.9570398 176.806193 7.04564991 185.451471.000418189098 196.085791.000418189098 205.960667.000418189098 215.004088 6.93733894 215.004088 17.9570398M207.154678 17.9570398C207.154678 11.2007768 201.945741 6.86541041 196.08621 6.86541041 190.256823 6.86541041 185.017742 11.201195 185.017742 17.9570398 185.017742 24.9307612 190.256823 29.1578166 196.08621 29.1578166 202.054592 29.1578166 207.154678 24.9683983 207.154678 17.9570398M144.071361 35.3725248L134.666638 35.3725248 132.78561 30.5671139 118.136364 30.5671139 116.219331 35.3725248 107.392774 35.3725248 123.164022.686666498 128.047244.686666498 144.071361 35.3725248 144.071361 35.3725248zM130.145555 23.8104326L125.479198 11.8150966 120.74167 23.8104326 130.145555 23.8104326 130.145555 23.8104326zM106.633748 27.3152755L106.236024 34.3245429C104.210558 35.1559029 101.732106 36.0228089 97.2658673 36.0228089 86.5118113 36.0228089 77.9138415 29.6278612 77.9138415 18.0293866 77.9138415 5.74508182 87.8891946.000418189097 97.3742996.000418189097 102.322832.000418189097 104.759837 1.1086193 106.597744 1.84295935L106.163596 8.852645C104.354995 7.9129741 101.714522 6.86541041 97.2658673 6.86541041 91.1166255 6.86541041 86.0885485 11.245523 86.0885485 18.0653508 86.0885485 24.786486 90.9709327 29.1218524 97.4831506 29.1218524 101.841794 29.1218524 104.848174 28.1023073 106.633748 27.3152755M28.7203254 27.3152755L28.3226008 34.3245429C26.296717 35.1559029 23.818683 36.0228089 19.3520258 36.0228089 8.59796976 36.0228089 0 29.6278612 0 18.0293866 0 5.74508182 9.9757717.000418189098 19.4604581.000418189098 24.4094088.000418189098 26.8459956 1.1086193 28.6843209 1.84295935L28.250173 8.852645C26.4415725 7.9129741 23.8010994 6.86541041 19.3520258 6.86541041 13.202784 6.86541041 8.17470699 11.245523 8.17470699 18.0653508 8.17470699 24.786486 13.0570911 29.1218524 19.5688904 29.1218524 23.9279526 29.1218524 26.934751 28.1023073 28.7203254 27.3152755"/>
    </g>
    <g transform="translate(272)">
      <path d="M80.5499109 31.5970175C80.5456336 31.5754386 80.5415273 31.5538596 80.5351969 31.534386 80.5331438 31.5278947 80.5331438 31.5214035 80.5309195 31.5149123 80.5266422 31.5019298 80.5162055 31.4912281 80.509875 31.4803509 80.4994383 31.4608772 80.4888305 31.4415789 80.4761695 31.4242105 80.4635086 31.4068421 80.4508477 31.3919298 80.4361336 31.3789474 80.4214195 31.3638596 80.4087586 31.3508772 80.3919914 31.3378947 80.3752242 31.3249123 80.3562328 31.3142105 80.3372414 31.3033333 80.3245805 31.2968421 80.3161969 31.2882456 80.3035359 31.2817544 80.2972055 31.2796491 80.290875 31.2796491 80.2845445 31.2773684 80.2655531 31.2708772 80.2445086 31.2664912 80.2234641 31.2622807 80.2024195 31.2578947 80.1834281 31.2536842 80.1623836 31.2536842 80.1560531 31.2536842 80.1497227 31.2515789 80.1433922 31.2515789L69.2000648 31.2515789 69.2000648.604736842C69.2000648.598245614 69.1980117.591754386 69.1980117.585263158 69.1980117.563684211 69.1937344.542105263 69.1896281.520526316 69.1853508.498947368 69.1812445.479473684 69.1749141.460175439 69.1728609.453684211 69.1728609.447192982 69.1706367.440701754 69.1643063.427719298 69.1559227.417017544 69.1495922.404035088 69.1391555.384561404 69.1306008.367368421 69.1181109.35 69.10545.332807018 69.0907359.31754386 69.0760219.300350877 69.0633609.287368421 69.0486469.274385965 69.0339328.261578947 69.0149414.246491228 68.9961211.235614035 68.9750766.224912281 68.9646398.218421053 68.9560852.209824561 68.9435953.205438596 68.9372648.203333333 68.9309344.203333333 68.9268281.201052632 68.9057836.19245614 68.8826859.188070175 68.8616414.183859649 68.84265.179473684 68.8238297.175263158 68.8048383.175263158 68.7985078.175263158 68.7901242.170877193 68.7837938.170877193L61.2075914.170877193C61.2012609.170877193 61.1949305.172982456 61.1886.172982456 61.1675555.172982456 61.1485641.177368421 61.1275195.181578947 61.106475.185964912 61.0854305.190175439 61.0664391.196666667 61.0601086.19877193 61.0537781.19877193 61.0474477.201052632 61.0347867.205438596 61.02435.216140351 61.0137422.222631579 60.9947508.233508772 60.9759305.244210526 60.9589922.257192982 60.942225.270175439 60.9295641.283157895 60.91485.298245614 60.9001359.313333333 60.8854219.328421053 60.8748141.343508772 60.8621531.360701754 60.8517164.380175439 60.8411086.399649123 60.8347781.412631579 60.8263945.42122807 60.8200641.434210526 60.8180109.440701754 60.8180109.447192982 60.8157867.453684211 60.8094563.473157895 60.80535.494736842 60.8010727.516315789 60.7967953.537894737 60.7926891.557368421 60.7926891.578947368 60.7926891.585438596 60.7906359.591929825 60.7906359.598421053L60.7906359 35.5570175C60.7906359 36.7092982 61.2282938 37.7926316 62.0238797 38.6084211L62.0238797 38.6084211C62.8172414 39.4219298 63.8737453 39.8708772 64.9974891 39.8708772L80.1498938 39.8708772 80.1498938 39.8708772C80.1856523 39.8708772 80.2236352 39.864386 80.2593938 39.8536842 80.2677773 39.8515789 80.2783852 39.8492982 80.2867688 39.8450877 80.2951523 39.8429825 80.3035359 39.8407018 80.3120906 39.8364912 80.3247516 39.8321053 80.3351883 39.8214035 80.3457961 39.8149123 80.3647875 39.8040351 80.3836078 39.7933333 80.4005461 39.7803509 80.4173133 39.7673684 80.4299742 39.754386 80.4446883 39.7392982 80.4594023 39.7242105 80.4741164 39.7091228 80.4847242 39.6917544 80.4973852 39.6745614 80.5078219 39.6550877 80.5162055 39.635614 80.5225359 39.6226316 80.5309195 39.6140351 80.53725 39.6010526 80.5393031 39.5945614 80.5393031 39.5880702 80.5415273 39.5815789 80.5478578 39.5621053 80.5519641 39.5405263 80.5562414 39.5189474 80.5605188 39.4973684 80.564625 39.4778947 80.564625 39.4563158 80.564625 39.4498246 80.5666781 39.4433333 80.5666781 39.4368421L80.5666781 31.6682456C80.5666781 31.6617544 80.564625 31.6552632 80.564625 31.6487719 80.5582945 31.6380702 80.5541883 31.6163158 80.5499109 31.5970175L80.5499109 31.5970175zM68.9499258 32.1105263L79.1229891 32.1105263 76.1767547 35.1315789 66.0014672 35.1315789 66.178207 34.9503509 68.9499258 32.1105263 68.9499258 32.1105263zM68.3565727 31.4998246L65.4103383 34.5208772 65.4103383 4.66596491 68.3565727 1.64491228 68.3565727 31.4998246 68.3565727 31.4998246zM67.7609953 1.03631579L64.9872234 3.87824561 62.2156758 1.03631579 67.7609953 1.03631579 67.7609953 1.03631579zM61.6221516 35.5633333L61.6221516 1.64701754 64.5683859 4.66807018 64.5683859 35.3840351 62.329282 37.68C61.8704086 37.0780702 61.6221516 36.3401754 61.6221516 35.5633333L61.6221516 35.5633333zM64.9872234 39.0159649C64.2296203 39.0159649 63.5098289 38.7614035 62.9228062 38.2908772L63.7498734 37.442807 65.159857 35.9949123 76.1769258 35.9949123 77.7805875 37.6392982 79.1233312 39.0161404 64.9872234 39.0161404 64.9872234 39.0159649 64.9872234 39.0159649zM79.7185664 38.4052632L76.9490719 35.5633333 79.7185664 32.7214035 79.7185664 38.4052632 79.7185664 38.4052632zM135.475111.520526316C135.470834.498947368 135.466727.477368421 135.460397.457894737 135.458344.451403509 135.458344.444912281 135.45612.438421053 135.451842.425438596 135.441405.414736842 135.435075.403859649 135.424467.384385965 135.41403.365087719 135.40137.347719298 135.388709.330526316 135.376048.31754386 135.361334.30245614 135.34662.287368421 135.331905.272280702 135.314967.261403509 135.2982.248421053 135.279209.237719298 135.260217.228947368 135.247556.22245614 135.239173.213859649 135.226512.207368421 135.220181.205263158 135.213851.205263158 135.20752.202982456 135.188529.196491228 135.167484.192105263 135.14644.187894737 135.125395.183684211 135.106404.179298246 135.085359.179298246 135.079029.174912281 135.072698.172807018 135.066368.172807018L119.913963.172807018C118.79022.172807018 117.733716.621578947 116.93813 1.43526316L116.93813 1.43526316C116.142715 2.25087719 115.704886 3.33421053 115.704886 4.48877193L115.704886 20.0261404C115.704886 21.1807018 116.140491 22.2638596 116.936077 23.0796491L116.93813 23.0796491C117.733716 23.8931579 118.790048 24.3421053 119.913963 24.3421053L127.069275 24.3421053 127.069275 31.2475439 116.125948 31.2475439C116.119617 31.2475439 116.113287 31.2496491 116.106956 31.2496491 116.085912 31.2496491 116.06692 31.2540351 116.045876 31.2582456 116.024831 31.2626316 116.003787 31.2668421 115.984795 31.2733333 115.978465 31.2754386 115.972134 31.2754386 115.965804 31.2777193 115.953143 31.2821053 115.942706 31.292807 115.932098 31.2992982 115.913107 31.3101754 115.894287 31.3187719 115.877348 31.3338596 115.860581 31.3468421 115.845696 31.3598246 115.833206 31.3749123 115.818492 31.39 115.805831 31.4029825 115.79317 31.4201754 115.780509 31.4373684 115.770073 31.4568421 115.759465 31.4763158 115.753134 31.4892982 115.744751 31.4978947 115.73842 31.5108772 115.736367 31.5173684 115.736367 31.5238596 115.734143 31.5303509 115.727812 31.5498246 115.723706 31.5714035 115.719429 31.5929825 115.715152 31.6145614 115.711045 31.6340351 115.711045 31.655614 115.711045 31.6621053 115.708992 31.6685965 115.708992 31.6750877L115.708992 39.4436842C115.708992 39.4501754 115.711045 39.4566667 115.711045 39.4631579 115.711045 39.4847368 115.715323 39.5063158 115.719429 39.5257895 115.723706 39.5473684 115.727812 39.5668421 115.734143 39.5884211 115.736196 39.5949123 115.736196 39.6014035 115.73842 39.6078947 115.742698 39.6208772 115.753134 39.6315789 115.759465 39.6424561 115.770073 39.6619298 115.778456 39.6812281 115.79317 39.6985965 115.805831 39.7157895 115.818492 39.7308772 115.833206 39.7438596 115.84792 39.7589474 115.862634 39.7719298 115.877348 39.7849123 115.894116 39.7978947 115.913107 39.8085965 115.932098 39.8194737 115.944759 39.8259649 115.953143 39.8345614 115.965804 39.8410526 115.974187 39.8454386 115.982571 39.8454386 115.991126 39.8496491 115.999509 39.8517544 116.007893 39.8561404 116.018501 39.8582456 116.054259 39.8691228 116.090018 39.8754386 116.128001 39.8754386L131.280234 39.8754386 131.284512 39.8754386C132.406202 39.8754386 133.460653 39.4266667 134.256068 38.6129825L134.258121 38.6108772C135.053707 37.7952632 135.491365 36.7119298 135.491365 35.5594737L135.491365 20.0261404C135.491365 18.8738596 135.053707 17.7905263 134.258121 16.9747368L134.258121 16.9747368 134.258121 16.9747368 134.258121 16.9747368 134.258121 16.9747368C133.47109 16.1677193 132.427247 15.7210526 131.31394 15.7122807 131.309662 15.7122807 131.305556 15.7101754 131.301279 15.7101754L131.294948 15.7101754 131.278181 15.7101754 131.278181 15.7101754 127.490166 15.7101754 124.123041 15.7101754 124.123041 8.80491228 135.062262 8.80491228 135.066539 8.80491228C135.104351 8.80491228 135.142334 8.79842105 135.178092 8.7877193 135.186476 8.78561404 135.192806 8.78333333 135.199137 8.78122807 135.20752 8.77912281 135.218128 8.77684211 135.226512 8.77263158 135.241226 8.76614035 135.251834 8.75754386 135.264323 8.74894737 135.281091 8.74035088 135.298029 8.72947368 135.314796 8.71877193 135.333787 8.70578947 135.348502 8.69070175 135.363216 8.67350877 135.375877 8.66052632 135.388537 8.6454386 135.401027 8.63035088 135.413688 8.61087719 135.424125 8.59157895 135.434733 8.57210526 135.441063 8.56122807 135.449447 8.55052632 135.453724 8.53754386 135.455777 8.53105263 135.455777 8.5245614 135.458002 8.51807018 135.466385 8.49649123 135.468609 8.47701754 135.472716 8.45333333 135.476993 8.43175439 135.481099 8.4122807 135.481099 8.39070175 135.481099 8.38421053 135.483152 8.3777193 135.483152 8.37122807L135.483152.604912281C135.483152.598421053 135.481099.591929825 135.481099.585438596 135.483495.563684211 135.479217.542105263 135.475111.520526316L135.475111.520526316zM119.914477 1.03631579L134.050413 1.03631579 131.104179 4.05736842 120.089334 4.05736842 117.85023 1.76140351C118.437082 1.29087719 119.156873 1.03631579 119.914477 1.03631579L119.914477 1.03631579zM120.335367 5.53122807L123.281602 8.5522807 123.281602 15.9626316 120.335367 18.9836842 120.335367 5.53122807 120.335367 5.53122807zM117.254311 22.1431579C116.795609 21.5410526 116.54718 20.8031579 116.54718 20.0261404L116.54718 4.48894737C116.54718 3.71210526 116.795437 2.97403509 117.252258 2.37192982L119.493586 4.66789474 119.493586 19.8468421 117.481695 21.9119298 117.254311 22.1431579 117.254311 22.1431579zM119.914477 23.4787719C119.156873 23.4787719 118.437082 23.2242105 117.849888 22.7536842L119.45988 21.102807 120.089163 20.4575439 130.262227 20.4575439 127.74732 23.0363158 127.315821 23.4787719C127.315821 23.4787719 119.914477 23.4787719 119.914477 23.4787719L119.914477 23.4787719zM130.857804 21.0684211L130.857804 34.5210526 127.91157 31.5 127.91157 24.0896491 130.857804 21.0684211 130.857804 21.0684211zM127.315992 32.1105263L130.091817 34.9568421 130.262227 35.1315789 120.089163 35.1315789 119.657665 34.6891228 117.142758 32.1103509 127.315992 32.1103509 127.315992 32.1105263 127.315992 32.1105263zM116.54718 32.7212281L117.269025 33.4614035 119.318728 35.5631579 116.54718 38.4050877 116.54718 32.7212281 116.54718 32.7212281zM131.282801 39.0159649L131.278523 39.0159649 117.142587 39.0159649 117.599236 38.5477193 120.088821 35.9949123 131.103666 35.9949123 133.115557 38.0578947 133.34277 38.2908772C132.756089 38.7614035 132.038351 39.0159649 131.282801 39.0159649L131.282801 39.0159649zM134.64582 20.0261404L134.64582 35.5633333C134.64582 36.3401754 134.397562 37.0782456 133.938689 37.6803509L131.699585 35.384386 131.699585 20.2054386 133.938689 17.9094737C134.397562 18.5112281 134.64582 19.2492982 134.64582 20.0261404L134.64582 20.0261404zM131.278695 16.5735088C132.036298 16.5735088 132.756089 16.8280702 133.343283 17.2985965L132.88458 17.7689474 131.104008 19.5945614 120.930945 19.5945614 122.347259 18.144386 123.879403 16.575614 131.278866 16.575614 131.278866 16.5735088 131.278695 16.5735088 131.278695 16.5735088zM123.877179 7.94175439L121.101354 5.0954386 120.930945 4.92070175 131.104008 4.92070175 134.050242 7.94175439 123.877179 7.94175439 123.877179 7.94175439zM134.64582 7.33105263L132.107815 4.72631579 131.874272 4.48894737 132.686625 3.65596491 134.64582 1.64684211 134.64582 7.33105263 134.64582 7.33105263zM191.077842 1.4377193L191.077842 1.4377193C190.282256.622105263 189.225923.173157895 188.099955.173157895L172.947551.173157895C171.823807.173157895 170.767303.621929825 169.971717 1.4377193 169.971717 1.4377193 169.971717 1.4377193 169.971717 1.43982456 169.178355 2.2554386 168.740527 3.33877193 168.740527 4.49122807L168.740527 39.4498246C168.740527 39.4563158 168.74258 39.462807 168.74258 39.4692982 168.74258 39.4908772 168.746857 39.5124561 168.750963 39.5319298 168.755241 39.5535088 168.759347 39.5729825 168.765677 39.5945614 168.76773 39.6010526 168.76773 39.6075439 168.769955 39.6140351 168.774232 39.6270175 168.784669 39.6377193 168.790999 39.6485965 168.801607 39.6680702 168.809991 39.6873684 168.824705 39.7047368 168.837366 39.7219298 168.850027 39.7370175 168.864741 39.75 168.879455 39.7650877 168.894169 39.7780702 168.908883 39.7910526 168.92565 39.8040351 168.944641 39.8147368 168.963633 39.825614 168.976294 39.8321053 168.984677 39.8407018 168.997338 39.847193 169.005722 39.8515789 169.014105 39.8515789 169.02266 39.8557895 169.031044 39.8578947 169.039427 39.8622807 169.050035 39.864386 169.085794 39.8752632 169.121552 39.8815789 169.159535 39.8815789L176.735737 39.8815789C176.771496 39.8815789 176.809308 39.8750877 176.845237 39.864386 176.853621 39.8622807 176.864229 39.86 176.872612 39.8557895 176.880996 39.8536842 176.88938 39.8514035 176.897934 39.847193 176.910595 39.842807 176.921032 39.8321053 176.93164 39.825614 176.950631 39.8147368 176.969452 39.8061404 176.98639 39.7910526 177.003157 39.7780702 177.018042 39.7650877 177.030532 39.75 177.045246 39.7349123 177.057907 39.7198246 177.070568 39.7047368 177.083229 39.6875439 177.093666 39.6680702 177.104273 39.6485965 177.110604 39.635614 177.118987 39.6270175 177.125318 39.6140351 177.127371 39.6075439 177.127371 39.6010526 177.129595 39.5945614 177.135926 39.5750877 177.140203 39.5535088 177.144309 39.5319298 177.148587 39.5103509 177.152693 39.4908772 177.152693 39.4692982 177.152693 39.462807 177.154746 39.4563158 177.154746 39.4498246L177.154746 24.3442105 183.889167 24.3442105 183.889167 39.4498246C183.889167 39.4563158 183.89122 39.462807 183.89122 39.4692982 183.89122 39.4908772 183.895498 39.5103509 183.899604 39.5319298 183.903881 39.5535088 183.907987 39.5750877 183.914318 39.5945614 183.916371 39.6010526 183.916371 39.6075439 183.918595 39.6140351 183.924926 39.6270175 183.933309 39.6377193 183.93964 39.6485965 183.950077 39.6680702 183.958631 39.6873684 183.973345 39.7047368 183.986006 39.7219298 183.998667 39.7370175 184.013381 39.75 184.028095 39.7650877 184.042809 39.7780702 184.057523 39.7910526 184.074291 39.8040351 184.093282 39.8147368 184.112273 39.825614 184.124934 39.8321053 184.133318 39.8407018 184.145979 39.847193 184.154362 39.8515789 184.162746 39.8515789 184.171301 39.8557895 184.179684 39.8578947 184.188068 39.8622807 184.198676 39.864386 184.234434 39.8752632 184.270193 39.8815789 184.308176 39.8815789L191.886431 39.8815789C191.92219 39.8815789 191.960002 39.8750877 191.995931 39.864386 192.004315 39.8622807 192.012698 39.86 192.023306 39.8557895 192.03169 39.8536842 192.040073 39.8514035 192.048628 39.847193 192.061289 39.842807 192.071726 39.8321053 192.082334 39.825614 192.101325 39.8147368 192.120145 39.8061404 192.137084 39.7910526 192.153851 39.7780702 192.168736 39.7650877 192.181226 39.75 192.19594 39.7349123 192.208601 39.7198246 192.221262 39.7047368 192.233923 39.6875439 192.244359 39.6680702 192.254967 39.6485965 192.261298 39.635614 192.269681 39.6270175 192.276012 39.6140351 192.278065 39.6075439 192.278065 39.6010526 192.280289 39.5945614 192.28662 39.5750877 192.290726 39.5535088 192.295003 39.5319298 192.29928 39.5103509 192.303387 39.4908772 192.303387 39.4692982 192.303387 39.462807 192.30544 39.4563158 192.30544 39.4498246L192.30544 4.48894737C192.311086 3.33666667 191.873257 2.25333333 191.077842 1.4377193L191.077842 1.4377193 191.077842 1.4377193zM172.947551 1.03631579L188.099955 1.03631579C188.857559 1.03631579 189.57735 1.29087719 190.166597 1.76140351L189.983527 1.94912281 187.927322 4.05736842 173.124291 4.05736842 170.882962 1.76140351C171.47238 1.29087719 172.192001 1.03631579 172.947551 1.03631579L172.947551 1.03631579zM178.631798 15.7103509L177.158681 15.7103509 177.158681 8.80491228 183.893102 8.80491228 183.893102 15.7103509 180.532308 15.7103509 180.525977 15.7103509 180.525977 15.7103509 178.631798 15.7103509 178.631798 15.7103509zM176.910424 7.94175439L173.96419 4.92070175 187.083659 4.92070175 184.56858 7.49929825 184.139306 7.94175439 176.910424 7.94175439 176.910424 7.94175439zM176.314847 8.55245614L176.314847 15.962807 173.938868 18.3991228 173.368612 18.9838596 173.368612 5.53122807 176.314847 8.55245614 176.314847 8.55245614zM176.910424 16.5735088L184.137253 16.5735088 187.083487 19.5945614 173.964019 19.5945614 176.910424 16.5735088 176.910424 16.5735088zM184.732659 15.962807L184.732659 8.55245614 187.678894 5.53140351 187.678894 18.9840351 184.732659 15.962807 184.732659 15.962807zM169.582479 4.48894737C169.582479 3.71210526 169.830736 2.97403509 170.289609 2.37192982L172.52666 4.66789474 172.52666 20.0261404 172.52666 35.3842105 169.582479 38.4052632 169.582479 4.48894737 169.582479 4.48894737zM170.178056 39.0159649L170.394832 38.7936842 172.947551 36.1740351 175.09204 38.3708772 175.721323 39.0161404 170.178056 39.0159649 170.178056 39.0159649 170.178056 39.0159649zM176.314847 38.4052632L173.368612 35.3842105 173.368612 21.0684211 176.314847 24.0894737 176.314847 38.4052632 176.314847 38.4052632zM184.137253 23.4787719L176.910424 23.4787719 176.478926 23.0363158 173.964019 20.4577193 187.085541 20.4577193 184.570634 23.0364912 184.137253 23.4787719 184.137253 23.4787719zM184.732659 24.0894737L187.678894 21.0684211 187.678894 35.3842105 184.732659 38.4052632 184.732659 24.0894737 184.732659 24.0894737zM185.328237 39.0159649L185.545012 38.7936842 188.099784 36.1740351 189.213091 37.3135088 190.873556 39.0161404 185.328237 39.0159649 185.328237 39.0159649 185.328237 39.0159649zM191.469305 38.4052632L190.250775 37.1557895 188.522899 35.3842105 188.522899 20.0261404 188.522899 4.66807018 190.762174 2.37210526C191.220877 2.97631579 191.469305 3.71438596 191.469305 4.48912281L191.469305 38.4052632 191.469305 38.4052632 191.469305 38.4052632zM107.739959 1.4377193C106.944544.622105263 105.885987.173157895 104.762072.173157895L89.6096672.173157895C88.4859234.173157895 87.4294195.621929825 86.6338336 1.43561404L86.6338336 1.43561404C85.8384188 2.25122807 85.4005898 3.33666667 85.4005898 4.48912281L85.4005898 35.5633333C85.4005898 36.7135088 85.8361945 37.7968421 86.6295563 38.6124561L86.6316094 38.6145614C87.4270242 39.4301754 88.4835281 39.8791228 89.607443 39.8791228L104.759848 39.8791228C105.875208 39.8791228 106.925381 39.4366667 107.71669 38.6317544 107.72302 38.6252632 107.731404 38.6208772 107.737734 38.6145614 108.531096 37.7989474 108.968925 36.715614 108.968925 35.5631579L108.968925 4.48894737C108.971149 3.33666667 108.535373 2.25333333 107.739959 1.4377193L107.739959 1.4377193 107.739959 1.4377193zM89.6096672 1.03631579L104.762072 1.03631579C105.519675 1.03631579 106.239466 1.29087719 106.82666 1.76140351L104.587385 4.05736842 89.7843539 4.05736842 87.54525 1.76140351C88.1324438 1.29087719 88.8520641 1.03631579 89.6096672 1.03631579L89.6096672 1.03631579zM93.5725406 7.94175439L90.6261352 4.92052632 103.747657 4.92052632 101.230697 7.50157895 100.799198 7.94403509 93.5725406 7.94175439 93.5725406 7.94175439zM100.553166 31.2473684L93.8187445 31.2473684 93.8187445 8.80491228 100.553166 8.80491228 100.553166 31.2473684 100.553166 31.2473684 100.553166 31.2473684zM92.9769633 8.55245614L92.9769633 31.5021053 90.0307289 34.5231579 90.0307289 5.53122807 92.9769633 8.55245614 92.9769633 8.55245614zM93.5725406 32.1105263L100.79937 32.1105263 103.745604 35.1315789 90.6261352 35.1315789 93.5725406 32.1105263 93.5725406 32.1105263zM102.017899 32.1385965L101.394947 31.4998246 101.392723 8.55245614 104.341181 5.53140351 104.341181 20.0261404 104.341181 34.5210526 102.017899 32.1385965 102.017899 32.1385965zM86.2425422 35.5633333L86.2425422 4.48894737C86.2425422 3.71210526 86.4907992 2.97403509 86.9496727 2.37192982L89.1887766 4.66789474 89.1887766 35.3838596 86.9496727 37.6798246C86.4909703 37.0759649 86.2425422 36.3401754 86.2425422 35.5633333L86.2425422 35.5633333zM104.762072 39.0159649L89.6096672 39.0159649C88.8520641 39.0159649 88.1344969 38.7614035 87.5450789 38.2908772L89.7841828 35.9949123 104.587214 35.9949123 106.249732 37.6996491 106.826318 38.2908772C106.239466 38.7614035 105.519675 39.0159649 104.762072 39.0159649L104.762072 39.0159649zM108.129197 35.5633333C108.129197 36.3401754 107.88094 37.0759649 107.422066 37.6803509L106.700222 36.9401754 105.182963 35.384386 105.182963 20.0263158 105.182963 4.66807018 107.422066 2.37210526C107.880769 2.97631579 108.129197 3.71210526 108.129197 4.49122807L108.129197 35.5633333 108.129197 35.5633333zM218.823431 31.6596491C218.821378 31.6380702 218.819154 31.6185965 218.815048 31.5970175 218.81077 31.5754386 218.806664 31.5538596 218.800334 31.534386 218.79828 31.5278947 218.79828 31.5214035 218.796056 31.5149123 218.791779 31.5019298 218.781342 31.4912281 218.775012 31.4803509 218.764404 31.4608772 218.753967 31.4415789 218.741306 31.4242105 218.728645 31.4070175 218.715984 31.3940351 218.70127 31.3789474 218.686556 31.3638596 218.671842 31.3487719 218.654904 31.3378947 218.638137 31.3249123 218.619145 31.3142105 218.600154 31.305614 218.587493 31.2991228 218.579109 31.2905263 218.566448 31.2840351 218.560118 31.2819298 218.553788 31.2819298 218.547457 31.2796491 218.528466 31.2731579 218.507421 31.2687719 218.486377 31.2645614 218.465332 31.2601754 218.446341 31.2559649 218.425296 31.2559649 218.418966 31.2559649 218.412635 31.2538596 218.406305 31.2538596L207.462977 31.2538596 207.462977.604736842C207.462977.598245614 207.460924.591754386 207.460924.585263158 207.460924.563684211 207.456647.542105263 207.452541.520526316 207.448263.498947368 207.444157.479473684 207.437827.460175439 207.435773.453684211 207.435773.447192982 207.433549.440701754 207.427219.427719298 207.418835.417017544 207.412505.404035088 207.401897.384561404 207.393513.367368421 207.380852.35 207.368191.332807018 207.353477.31754386 207.338763.300350877 207.326102.287368421 207.311388.272280702 207.296674.261578947 207.277683.246491228 207.258863.235614035 207.237818.224912281 207.227381.218421053 207.218827.209824561 207.206337.205438596 207.200006.203333333 207.193676.203333333 207.189398.201052632 207.168354.19245614 207.145256.188070175 207.121988.183859649 207.102996.179473684 207.086229.177368421 207.067238.175263158 207.058854.175263158 207.052523.170877193 207.046193.170877193L199.467938.170877193C199.461607.170877193 199.455277.172982456 199.446893.172982456 199.425848.172982456 199.406857.177368421 199.388037.181578947 199.366992.185964912 199.345948.190175439 199.326956.196666667 199.320626.19877193 199.314295.19877193 199.307965.201052632 199.295304.205438596 199.284867.216140351 199.274259.222631579 199.255268.233508772 199.236448.242105263 199.219509.255087719 199.202742.268070175 199.188028.283157895 199.173143.296140351 199.158429.31122807 199.145768.324210526 199.133107.341403509 199.120446.358596491 199.110009.378070175 199.099402.39754386 199.093071.410526316 199.084688.419122807 199.078357.432105263 199.076304.438596491 199.076304.445087719 199.07408.451578947 199.067749.471052632 199.063643.492631579 199.059366.514210526 199.055088.535789474 199.050982.555263158 199.050982.576842105 199.050982.583333333 199.048929.589824561 199.048929.596315789L199.048929 35.5549123C199.048929 36.7050877 199.486587 37.7905263 200.282173 38.6063158 200.282173 38.6063158 200.282173 38.6063158 200.284226 38.6084211 201.079812 39.4219298 202.138369 39.8708772 203.260059 39.8708772L218.412464 39.8708772C218.448223 39.8708772 218.486205 39.864386 218.521964 39.8536842 218.530348 39.8515789 218.538731 39.8492982 218.549339 39.8450877 218.557723 39.8429825 218.566106 39.8407018 218.574661 39.8364912 218.587322 39.8321053 218.597759 39.8214035 218.608366 39.8149123 218.627358 39.8040351 218.646178 39.7954386 218.663116 39.7803509 218.679884 39.7673684 218.694598 39.754386 218.707259 39.7392982 218.721973 39.7242105 218.734634 39.7091228 218.747295 39.6940351 218.759955 39.6768421 218.770392 39.6573684 218.781 39.6378947 218.78733 39.6249123 218.795714 39.6163158 218.802045 39.6033333 218.804098 39.5968421 218.804098 39.5903509 218.806322 39.5838596 218.812652 39.564386 218.81693 39.542807 218.821036 39.5212281 218.825142 39.4996491 218.82942 39.4801754 218.82942 39.4585965 218.82942 39.4521053 218.831473 39.445614 218.831473 39.4391228L218.831473 31.6705263C218.825484 31.6724561 218.823431 31.6659649 218.823431 31.6596491L218.823431 31.6596491zM207.215063 32.1105263L217.388126 32.1105263 214.441891 35.1315789 204.268828 35.1315789 206.975189 32.3564912 207.215063 32.1105263 207.215063 32.1105263zM206.619485 31.4998246L206.541638 31.5796491 203.673251 34.5208772 203.673251 4.66807018 206.619485 1.64701754 206.619485 31.4998246 206.619485 31.4998246zM206.023908 1.03631579L203.5386 3.58491228 203.25236 3.87842105 200.478588 1.03649123 206.023908 1.03649123 206.023908 1.03631579 206.023908 1.03631579zM199.883011 35.5633333L199.883011 1.64701754 202.829245 4.66807018 202.829245 35.3840351 200.58997 37.68C200.133492 37.0759649 199.883011 36.3378947 199.883011 35.5633333L199.883011 35.5633333zM203.252189 39.0159649C202.494586 39.0159649 201.777019 38.7614035 201.187601 38.2908772L203.426876 35.9949123 214.44172 35.9949123 217.387955 39.0159649 203.252189 39.0159649 203.252189 39.0159649zM217.983703 38.4052632L217.078788 37.4773684 215.209931 35.5633333 217.981479 32.7214035 217.981479 38.4054386 217.983703 38.4052632 217.983703 38.4052632 217.983703 38.4052632zM161.991562.522807018C161.987285.50122807 161.983179.479649123 161.976848.460175439 161.974795.453684211 161.974795.447192982 161.972571.440701754 161.968294.427719298 161.957857.417017544 161.951527.406140351 161.94109.386666667 161.930482.367368421 161.917821.35 161.90516.332807018 161.892499.319824561 161.877785.304736842 161.863071.289649123 161.848357.274561404 161.831419.263684211 161.814652.250701754 161.79566.24 161.776669.23122807 161.764008.224736842 161.755624.216140351 161.742963.209649123 161.736633.20754386 161.730302.20754386 161.723972.205263158 161.70498.19877193 161.683936.194385965 161.662891.190175439 161.641847.185964912 161.622855.181578947 161.601811.181578947 161.59548.175087719 161.58915.172982456 161.58282.172982456L146.430415.172982456C145.306671.172982456 144.250167.621754386 143.454581 1.4354386L143.454581 1.4354386C142.66122 2.25105263 142.223391 3.33438596 142.223391 4.48684211L142.223391 20.0240351C142.223391 21.1763158 142.658995 22.2617544 143.454581 23.0775439 144.250167 23.8931579 145.3065 24.3421053 146.430415 24.3421053L153.585727 24.3421053 153.585727 31.2475439 142.642399 31.2475439C142.636069 31.2475439 142.629738 31.2496491 142.623408 31.2496491 142.602363 31.2496491 142.583372 31.2540351 142.562327 31.2582456 142.541283 31.2626316 142.520238 31.2668421 142.501247 31.2733333 142.494916 31.2754386 142.488586 31.2754386 142.482255 31.2777193 142.469595 31.2821053 142.459158 31.292807 142.44855 31.2992982 142.429559 31.3101754 142.410738 31.3187719 142.3938 31.3338596 142.377033 31.3468421 142.362148 31.3598246 142.349658 31.3749123 142.334944 31.39 142.322283 31.4029825 142.309622 31.4201754 142.296961 31.4373684 142.286524 31.4568421 142.275916 31.4763158 142.269586 31.4892982 142.261202 31.4978947 142.254872 31.5108772 142.252819 31.5173684 142.252819 31.5238596 142.250595 31.5303509 142.244264 31.5498246 142.240158 31.5714035 142.23588 31.5929825 142.231603 31.6145614 142.227497 31.6340351 142.227497 31.655614 142.227497 31.6621053 142.225444 31.6685965 142.225444 31.6750877L142.225444 39.4436842C142.225444 39.4501754 142.227497 39.4566667 142.227497 39.4631579 142.227497 39.4847368 142.231774 39.5063158 142.23588 39.5257895 142.240158 39.5473684 142.244264 39.5668421 142.250595 39.5884211 142.252648 39.5949123 142.252648 39.6014035 142.254872 39.6078947 142.261202 39.6208772 142.269586 39.6315789 142.275916 39.6424561 142.286353 39.6619298 142.294908 39.6812281 142.309622 39.6985965 142.322283 39.7157895 142.334944 39.7308772 142.349658 39.7438596 142.364372 39.7589474 142.379086 39.7719298 142.3938 39.7849123 142.410567 39.7978947 142.429559 39.8085965 142.44855 39.8194737 142.461211 39.8259649 142.469595 39.8345614 142.482255 39.8410526 142.490639 39.8454386 142.499023 39.8454386 142.507577 39.8496491 142.515961 39.8517544 142.524345 39.8561404 142.534952 39.8582456 142.570711 39.8691228 142.60647 39.8754386 142.644452 39.8754386L157.794633 39.8754386 157.79891 39.8754386C158.920601 39.8754386 159.977105 39.4266667 160.77252 38.6129825L160.77252 38.6129825 160.77252 38.6129825C161.568105 37.7973684 162.005763 36.7140351 162.005763 35.5615789L162.005763 20.0261404C162.005763 18.8738596 161.568105 17.7905263 160.77252 16.9747368 160.77252 16.9747368 160.77252 16.9747368 160.770466 16.9726316 159.979158 16.1612281 158.928984 15.7145614 157.807294 15.7101754L157.794633 15.7101754 157.794633 15.7101754 154.006617 15.7101754 150.639492 15.7101754 150.639492 8.80491228 161.578713 8.80491228 161.582991 8.80491228C161.620802 8.80491228 161.658785 8.79842105 161.694544 8.7877193 161.702927 8.78561404 161.709258 8.78333333 161.715588 8.78122807 161.723972 8.77912281 161.73458 8.77684211 161.742963 8.77263158 161.757677 8.76614035 161.768285 8.75754386 161.780775 8.74894737 161.797542 8.74035088 161.81448 8.72947368 161.831248 8.71877193 161.848015 8.70578947 161.864953 8.69070175 161.879667 8.67350877 161.892328 8.66052632 161.904989 8.64754386 161.917479 8.63035088 161.93014 8.61087719 161.942801 8.59157895 161.953237 8.57 161.959568 8.55912281 161.967952 8.54842105 161.972229 8.53754386 161.974282 8.53105263 161.974282 8.5245614 161.976506 8.51807018 161.98489 8.49649123 161.987114 8.47491228 161.99122 8.45333333 161.995327 8.43175439 161.999604 8.4122807 161.999604 8.39070175 161.999604 8.38421053 162.001657 8.3777193 162.001657 8.37122807L162.001657.604912281C162.001657.598421053 161.999604.591929825 161.999604.585438596 161.999946.563684211 161.99584.542105263 161.991562.522807018L161.991562.522807018zM146.430928 1.03631579L160.566865 1.03631579 157.62063 4.05736842 146.605786 4.05736842 145.976503 3.41210526 144.366511 1.76122807C144.955758 1.29087719 145.673325 1.03631579 146.430928 1.03631579L146.430928 1.03631579zM146.85199 5.53122807L149.798224 8.5522807 149.798224 15.9626316 147.422245 18.3989474 146.85199 18.9836842 146.85199 5.53122807 146.85199 5.53122807 146.85199 5.53122807zM143.065856 20.0261404L143.065856 4.48894737C143.065856 3.71210526 143.314113 2.97403509 143.772987 2.37192982L146.010037 4.66789474 146.010037 19.8468421 143.770934 22.142807C143.312231 21.5410526 143.063803 20.8029825 143.065856 20.0261404L143.065856 20.0261404zM146.430928 23.4787719C145.673325 23.4787719 144.955758 23.2242105 144.366511 22.7536842L146.605615 20.4577193 156.778678 20.4577193 154.663617 22.6285965 153.834497 23.4810526 146.430928 23.4810526 146.430928 23.4787719 146.430928 23.4787719zM157.374427 21.0684211L157.374427 34.5210526 154.430245 31.5 154.430245 24.0896491 157.374427 21.0684211 157.374427 21.0684211zM153.834668 32.1105263L154.619646 32.9154386 156.778849 35.1315789 146.605786 35.1315789 144.234084 32.6996491 143.659552 32.1105263 153.834668 32.1105263 153.834668 32.1105263zM143.065856 38.4052632L143.065856 32.7212281 145.835351 35.5631579 143.318391 38.1440351 143.065856 38.4052632 143.065856 38.4052632zM157.79737 39.0159649L157.795317 39.0159649 143.661605 39.0159649 144.882187 37.764386 146.607839 35.9949123 157.622684 35.9949123 159.861787 38.2908772C159.272541 38.7614035 158.55292 39.0159649 157.79737 39.0159649L157.79737 39.0159649zM161.162442 20.0261404L161.162442 35.5633333C161.162442 36.3401754 160.914185 37.0782456 160.455312 37.6803509L158.216208 35.384386 158.216208 20.2054386 160.455312 17.9094737C160.914185 18.5112281 161.162442 19.2492982 161.162442 20.0261404L161.162442 20.0261404zM157.795317 16.5735088C158.55292 16.5735088 159.272712 16.8280702 159.859905 17.2985965L157.62063 19.5945614 147.447567 19.5945614 150.393802 16.5735088 157.795317 16.5735088 157.795317 16.5735088zM150.393802 7.94175439L147.447567 4.92070175 157.62063 4.92070175 157.66272 4.96596491 160.566865 7.94385965 150.393802 7.94385965 150.393802 7.94175439 150.393802 7.94175439zM161.162442 7.33105263L158.750705 4.85807018 158.390895 4.48912281 158.592956 4.28192982 161.162442 1.64701754 161.162442 7.33105263 161.162442 7.33105263zM52.8106523 1.4377193C52.0152375.622105263 50.9587336.173157895 49.8348187.173157895L34.6825852.173157895C33.5588414.173157895 32.5023375.621929825 31.7067516 1.43561404L31.7067516 1.43561404C30.9113367 2.25122807 30.4735078 3.33666667 30.4735078 4.48894737L30.4735078 35.5631579C30.4735078 36.7133333 30.9091125 37.7966667 31.7024742 38.6122807L31.7045273 38.614386C32.4999422 39.43 33.5564461 39.8789474 34.6803609 39.8789474L49.8327656 39.8789474C50.9481258 39.8789474 51.9962461 39.4364912 52.7896078 38.6315789 52.7959383 38.6250877 52.8043219 38.6207018 52.8106523 38.614386 53.6040141 37.7987719 54.041843 36.7154386 54.041843 35.5629825L54.041843 4.48894737C54.0438961 3.33666667 53.6060672 2.25333333 52.8106523 1.4377193L52.8106523 1.4377193 52.8106523 1.4377193zM34.6825852 1.03631579L49.8349898 1.03631579C50.592593 1.03631579 51.3123844 1.29087719 51.8995781 1.76140351L49.660132 4.05736842 34.8571008 4.05736842 32.6179969 1.76140351C33.2051906 1.29087719 33.924982 1.03631579 34.6825852 1.03631579L34.6825852 1.03631579zM38.6452875 7.94175439L35.6990531 4.92070175 48.8185219 4.92070175 45.8700633 7.94403509 38.6452875 7.94175439 38.6452875 7.94175439zM45.6259125 31.2473684L38.8914914 31.2473684 38.8914914 8.80491228 45.6259125 8.80491228 45.6259125 31.2473684 45.6259125 31.2473684zM38.047657 8.55245614L38.047657 31.5021053 35.1014227 34.5231579 35.1014227 5.53122807 38.047657 8.55245614 38.047657 8.55245614zM38.6452875 32.1105263L45.8721164 32.1105263 48.8183508 35.1315789 35.698882 35.1315789 38.6452875 32.1105263 38.6452875 32.1105263zM47.0906461 32.1385965L46.4676937 31.4998246 46.4656406 8.55245614 49.4140992 5.53140351 49.4140992 20.0261404 49.4140992 34.5210526 47.0906461 32.1385965 47.0906461 32.1385965zM31.3152891 35.5633333L31.3152891 4.48894737C31.3152891 3.71210526 31.5635461 2.97403509 32.0224195 2.37192982L34.2616945 4.66807018 34.2616945 35.3840351 32.0225906 37.68C31.5637172 37.0759649 31.3152891 36.3401754 31.3152891 35.5633333L31.3152891 35.5633333zM49.8348187 39.0159649L34.6825852 39.0159649C33.924982 39.0159649 33.2074148 38.7614035 32.6179969 38.2908772L34.8571008 35.9949123 49.660132 35.9949123 50.8766086 37.2422807 51.899407 38.2910526C51.3122133 38.7614035 50.5924219 39.0159649 49.8348187 39.0159649L49.8348187 39.0159649zM53.2021148 35.5633333C53.2021148 36.3401754 52.9538578 37.0759649 52.4949844 37.6803509L52.0867547 37.2617544 50.2558805 35.384386 50.2558805 20.0261404 50.2558805 4.66807018 52.4949844 2.37210526C52.9536867 2.97631579 53.2021148 3.71438596 53.2000617 4.49122807L53.2000617 35.5633333 53.2021148 35.5633333 53.2021148 35.5633333zM22.7984133 1.74631579L22.6112367 1.55421053C22.5754781 1.5154386 22.5438258 1.47438596 22.5060141 1.4354386 22.4702555 1.39877193 22.4302195 1.36631579 22.3944609 1.33192982L22.203007 1.13561404 22.1923992 1.14649123C21.4431797.516315789 20.512943.173333333 19.5301805.173333333L4.37777578.173333333 4.35673125.173333333C3.24547734.179824561 2.20180547.624385965 1.41255 1.42701754 1.41049688 1.42912281 1.40827266 1.43140351 1.40621953 1.43350877 1.40416641 1.43561404 1.40194219 1.43561404 1.40194219 1.43789474 1.39561172 1.44438596 1.38928125 1.45087719 1.38295078 1.45736842 1.38089766 1.45947368 1.37867344 1.46175439 1.37662031 1.46385965 1.37662031 1.46385965 1.37662031 1.46385965 1.37662031 1.46596491.597972656 2.27736842.168698438 3.3477193.168698438 4.48929825L.168698438 35.5635088C.168698438 36.7157895.60635625 37.7991228 1.39988906 38.6149123L1.39988906 38.6149123C2.19752813 39.4305263 3.25386094 39.8794737 4.37777578 39.8794737L19.5301805 39.8794737 19.5301805 39.8794737C20.6539242 39.8794737 21.7104281 39.4307018 22.5060141 38.6170175L22.5060141 38.6170175C23.3014289 37.8014035 23.7392578 36.7180702 23.7392578 35.565614L23.7392578 25.8549123C23.7392578 25.8484211 23.7372047 25.8419298 23.7372047 25.8354386 23.7372047 25.8138596 23.7329273 25.794386 23.7288211 25.772807 23.7245438 25.7512281 23.7204375 25.7296491 23.714107 25.7101754 23.7120539 25.7036842 23.7120539 25.697193 23.7098297 25.6907018 23.7055523 25.6777193 23.6951156 25.6670175 23.6887852 25.6561404 23.6781773 25.6366667 23.6677406 25.6173684 23.6550797 25.6 23.6424188 25.582807 23.6297578 25.5698246 23.6150438 25.5547368 23.6003297 25.5396491 23.5856156 25.5245614 23.5709016 25.5136842 23.5541344 25.5007018 23.535143 25.49 23.5161516 25.4791228 23.5034906 25.4726316 23.495107 25.4640351 23.4824461 25.4575439 23.4761156 25.4554386 23.4697852 25.4554386 23.4634547 25.4531579 23.4444633 25.4466667 23.4234188 25.4422807 23.4023742 25.4380702 23.3813297 25.4336842 23.3602852 25.4294737 23.3392406 25.4294737 23.3329102 25.4294737 23.3265797 25.4273684 23.3202492 25.4273684L15.7440469 25.4273684C15.7377164 25.4273684 15.7313859 25.4294737 15.7250555 25.4294737 15.7040109 25.4294737 15.6829664 25.4338596 15.663975 25.4380702 15.6429305 25.4424561 15.6239391 25.4466667 15.6028945 25.4531579 15.5965641 25.4552632 15.5902336 25.4552632 15.5839031 25.4575439 15.5712422 25.4619298 15.5608055 25.4726316 15.5501977 25.4791228 15.5312063 25.49 15.5123859 25.5007018 15.4954477 25.5136842 15.4786805 25.5266667 15.4660195 25.5396491 15.4513055 25.5547368 15.4365914 25.5698246 15.4239305 25.582807 15.4112695 25.6 15.3986086 25.617193 15.3881719 25.6366667 15.3775641 25.6561404 15.3712336 25.6691228 15.36285 25.6777193 15.3565195 25.6907018 15.3544664 25.697193 15.3544664 25.7036842 15.3522422 25.7101754 15.3459117 25.7296491 15.3416344 25.7512281 15.3375281 25.772807 15.3332508 25.794386 15.3291445 25.8138596 15.3291445 25.8354386 15.3291445 25.8419298 15.3270914 25.8484211 15.3270914 25.8549123L15.3270914 31.2498246 8.58633984 31.2498246 8.58633984 8.80491228 15.3207609 8.80491228 15.3207609 14.1998246C15.3207609 14.2063158 15.3228141 14.212807 15.3228141 14.2192982 15.3228141 14.2408772 15.3270914 14.2603509 15.3311977 14.2819298 15.335475 14.3035088 15.3395813 14.3250877 15.3459117 14.3445614 15.3479648 14.3510526 15.3479648 14.3575439 15.3501891 14.3640351 15.3544664 14.3770175 15.3649031 14.3877193 15.3712336 14.3985965 15.3818414 14.4180702 15.3922781 14.4373684 15.4049391 14.4547368 15.4176 14.4719298 15.4302609 14.487193 15.444975 14.5 15.4596891 14.5150877 15.47235 14.5280702 15.4891172 14.5410526 15.5058844 14.5540351 15.5248758 14.5647368 15.5438672 14.575614 15.5565281 14.5821053 15.5649117 14.5907018 15.5775727 14.597193 15.5859563 14.6015789 15.5943398 14.6015789 15.6028945 14.6057895 15.6112781 14.6078947 15.6196617 14.6122807 15.6302695 14.614386 15.6680813 14.6250877 15.7060641 14.6315789 15.7418227 14.6315789L15.7418227 14.6315789 23.318025 14.6315789 23.318025 14.6315789C23.3537836 14.6315789 23.3917664 14.6250877 23.427525 14.614386 23.4359086 14.6122807 23.4442922 14.61 23.4549 14.6057895 23.4632836 14.6036842 23.4716672 14.6014035 23.4802219 14.597193 23.4928828 14.592807 23.5033195 14.5821053 23.5139273 14.575614 23.5329188 14.5647368 23.5517391 14.5561404 23.5686773 14.5410526 23.5854445 14.5280702 23.6003297 14.5129825 23.6128195 14.5 23.6275336 14.4849123 23.6401945 14.4719298 23.6528555 14.4547368 23.6655164 14.4375439 23.6759531 14.4180702 23.6865609 14.3985965 23.6928914 14.385614 23.701275 14.3770175 23.7076055 14.3640351 23.7096586 14.3575439 23.7096586 14.3510526 23.7118828 14.3445614 23.7182133 14.3250877 23.7224906 14.3035088 23.7265969 14.2819298 23.7308742 14.2603509 23.7349805 14.2408772 23.7349805 14.2192982 23.7349805 14.212807 23.7370336 14.2063158 23.7370336 14.1998246L23.7370336 4.48894737C23.7370336 3.48122807 23.4023742 2.52736842 22.7857523 1.75701754L22.7984133 1.74631579 22.7984133 1.74631579zM4.37572266 1.03631579L4.39676719 1.03631579 19.5301805 1.03631579C20.2877836 1.03631579 21.0032977 1.29315789 21.5925445 1.76350877L19.3554938 4.05736842 4.5524625 4.05736842 2.31335859 1.76140351C2.90055234 1.29087719 3.62017266 1.03631579 4.37572266 1.03631579L4.37572266 1.03631579zM4.79866641 5.53122807L7.74490078 8.5522807 7.74490078 31.5019298 4.79866641 34.5229825 4.79866641 5.53122807 4.79866641 5.53122807zM1.01065078 35.5633333L1.01065078 4.48894737C1.01065078 3.71210526 1.25890781 2.97403509 1.71778125 2.37192982L3.95688516 4.66807018 3.95688516 35.3840351 1.71778125 37.68C1.25907891 37.0780702 1.01065078 36.3401754 1.01065078 35.5633333L1.01065078 35.5633333zM19.5301805 39.0159649L19.5301805 39.4475439 19.5301805 39.0159649 4.37777578 39.0159649C3.62017266 39.0159649 2.90260547 38.7614035 2.3131875 38.2908772L4.55229141 35.9949123 19.3553227 35.9949123 20.9589844 37.6392982 21.5945977 38.2910526C21.007575 38.7614035 20.2877836 39.0159649 19.5301805 39.0159649L19.5301805 39.0159649zM22.8973055 35.5633333C22.8973055 36.3401754 22.6490484 37.0759649 22.190175 37.6803509L22.1143805 37.6026316 19.9509 35.3842105 19.9509 29.9159649 22.8971344 26.8949123 22.8973055 35.5633333 22.8973055 35.5633333 22.8973055 35.5633333zM22.3017281 26.2842105L19.5301805 29.1261404 16.7586328 26.2842105 22.3017281 26.2842105 22.3017281 26.2842105zM19.1092898 29.9159649L19.1092898 34.5210526 18.5116594 33.9082456 16.1630555 31.4998246 16.1630555 26.8947368 19.1092898 29.9159649 19.1092898 29.9159649zM15.5674781 32.1105263L16.3040367 32.8657895 18.5137125 35.1315789 5.39424375 35.1315789 8.34047813 32.1105263 15.5674781 32.1105263 15.5674781 32.1105263 15.5674781 32.1105263zM15.5695313 7.94175439L8.34064922 7.94175439 5.39441484 4.92070175 18.5138836 4.92070175 17.9436281 5.5054386 15.5695313 7.94175439 15.5695313 7.94175439zM16.1630555 8.55245614L19.1092898 5.53140351 19.1092898 10.1384211 16.1630555 13.1594737 16.1630555 8.55245614 16.1630555 8.55245614zM16.7586328 13.7680702L19.5301805 10.9261404 19.6501172 11.0491228 22.3017281 13.7680702 16.7586328 13.7680702 16.7586328 13.7680702zM22.8973055 4.48894737L22.8973055 13.1573684 19.9510711 10.1363158 19.9510711 4.66807018 22.1881219 2.37421053C22.6469953 2.97631579 22.8973055 3.71210526 22.8973055 4.48894737L22.8973055 4.48894737z"/>
    </g>
    <path d="M0.313609467,117.046875 L0.313609467,120.662136 L26.0302636,120.662136 L26.0302636,117.046875 L0.313609467,117.046875 L0.313609467,117.046875 Z M29.6738439,117.046875 L29.6738439,120.662136 L66.3212351,120.662136 C66.3212337,120.662136 62.5779066,117.046875 57.6199959,117.046875 L29.6738439,117.046875 L29.6738439,117.046875 Z M73.5103387,117.046875 L73.5103387,120.662136 L95.6814695,120.662136 L94.3654454,117.046875 L73.5103387,117.046875 L73.5103387,117.046875 Z M111.576973,117.046875 L110.260949,120.662136 L132.230805,120.662136 L132.230805,117.046875 L111.576973,117.046875 L111.576973,117.046875 Z M0.313609467,124.077686 L0.313609467,127.692946 L26.0302636,127.692946 L26.0302636,124.077686 L0.313609467,124.077686 L0.313609467,124.077686 Z M29.6738439,124.082807 L29.6738439,127.692946 L70.5737996,127.692946 C70.5737996,127.692948 70.0961081,124.910486 69.262936,124.082807 L29.6738439,124.082807 L29.6738439,124.082807 Z M73.5103387,124.082807 L73.5103387,127.692946 L98.1122432,127.692946 L96.8942748,124.082807 L73.5103387,124.082807 L73.5103387,124.082807 Z M108.944925,124.082807 L107.726957,127.692946 L132.230805,127.692946 L132.230805,124.082807 L108.944925,124.082807 L108.944925,124.082807 Z M7.70398586,131.108497 L7.70398586,134.728877 L18.8411599,134.728877 L18.8411599,131.108497 L7.70398586,131.108497 L7.70398586,131.108497 Z M37.0642208,131.108497 L37.0642208,134.728877 L48.201393,134.728877 L48.201393,131.108497 L37.0642208,131.108497 L37.0642208,131.108497 Z M59.034077,131.108497 L59.034077,134.728877 L70.1712505,134.728877 C70.1712518,134.728877 70.8782904,132.816949 70.8782904,131.108497 L59.034077,131.108497 L59.034077,131.108497 Z M80.9007157,131.108497 L80.9007157,134.728877 L100.646235,134.728877 L99.3302104,131.108497 L80.9007157,131.108497 L80.9007157,131.108497 Z M106.519313,131.108497 L105.198128,134.728877 L125.041703,134.728877 L125.041703,131.108497 L106.519313,131.108497 L106.519313,131.108497 Z M7.70398586,138.144429 L7.70398586,141.759688 L18.8411599,141.759688 L18.8411599,138.144429 L7.70398586,138.144429 L7.70398586,138.144429 Z M37.0642208,138.144429 L37.0642208,141.759688 L65.5109789,141.759688 C65.5109802,141.759687 67.8905964,139.904661 68.6487913,138.144429 L37.0642208,138.144429 L37.0642208,138.144429 Z M80.9007157,138.144429 L80.9007157,141.759688 L92.0378892,141.759688 L92.0378892,139.747228 L92.7449291,141.759688 L113.14588,141.759688 L113.904529,139.747228 L113.904529,141.759688 L125.041703,141.759688 L125.041703,138.144429 L104.134987,138.144429 L103.025398,141.206646 L101.910649,138.144429 L80.9007157,138.144429 L80.9007157,138.144429 Z M7.70398586,145.17524 L7.70398586,148.790499 L18.8411599,148.790499 L18.8411599,145.17524 L7.70398586,145.17524 L7.70398586,145.17524 Z M37.0642208,145.17524 L37.0642208,148.790499 L68.6487913,148.790499 C67.8904326,147.036003 65.5109789,145.17524 65.5109789,145.17524 L37.0642208,145.17524 L37.0642208,145.17524 Z M80.9007157,145.17524 L80.9007157,148.790499 L92.0378892,148.790499 L92.0378892,145.17524 L80.9007157,145.17524 L80.9007157,145.17524 Z M94.0609532,145.17524 L95.4079433,148.790499 L110.704785,148.790499 L111.984683,145.17524 L94.0609532,145.17524 L94.0609532,145.17524 Z M113.904529,145.17524 L113.904529,148.790499 L125.041703,148.790499 L125.041703,145.17524 L113.904529,145.17524 L113.904529,145.17524 Z M7.70398586,152.206051 L7.70398586,155.82131 L18.8411599,155.82131 L18.8411599,152.206051 L7.70398586,152.206051 L7.70398586,152.206051 Z M37.0642208,152.206051 L37.0642208,155.82131 L48.201393,155.82131 L48.201393,152.206051 L37.0642208,152.206051 L37.0642208,152.206051 Z M59.034077,152.206051 L59.034077,155.82131 L70.8782904,155.82131 C70.8782931,154.115157 70.1712505,152.206051 70.1712505,152.206051 L59.034077,152.206051 L59.034077,152.206051 Z M80.9007157,152.206051 L80.9007157,155.82131 L92.0378892,155.82131 L92.0378892,152.206051 L80.9007157,152.206051 L80.9007157,152.206051 Z M96.5897827,152.206051 L97.8954857,155.82131 L108.150149,155.82131 L109.466173,152.206051 L96.5897827,152.206051 L96.5897827,152.206051 Z M113.904529,152.206051 L113.904529,155.82131 L125.041703,155.82131 L125.041703,152.206051 L113.904529,152.206051 L113.904529,152.206051 Z M0.514882708,159.236862 L0.514882708,162.857242 L26.2315368,162.857242 L26.2315368,159.236862 L0.514882708,159.236862 L0.514882708,159.236862 Z M29.6738439,159.236862 L29.6738439,162.857242 L69.262936,162.857242 C70.0961081,162.028253 70.5737996,159.236862 70.5737996,159.236862 L29.6738439,159.236862 L29.6738439,159.236862 Z M73.711612,159.236862 L73.711612,162.857242 L92.0378892,162.857242 L92.0378892,159.236862 L73.711612,159.236862 L73.711612,159.236862 Z M99.123774,159.236862 L100.465602,162.857242 L105.68325,162.857242 L106.942504,159.236862 L99.123774,159.236862 L99.123774,159.236862 Z M113.904529,159.236862 L113.904529,162.857242 L132.43208,162.857242 L132.43208,159.236862 L113.904529,159.236862 L113.904529,159.236862 Z M0.514882708,166.272793 L0.514882708,169.888055 L26.2315368,169.888055 L26.2315368,166.272793 L0.514882708,166.272793 L0.514882708,166.272793 Z M29.6738439,166.272793 L29.6738439,169.882934 L57.6199959,169.882934 C62.5779053,169.882932 66.3212351,166.272793 66.3212351,166.272793 L29.6738439,166.272793 L29.6738439,166.272793 Z M73.711612,166.272793 L73.711612,169.888055 L92.0378892,169.888055 L92.0378892,166.272793 L73.711612,166.272793 L73.711612,166.272793 Z M101.668088,166.272793 L102.958308,169.877811 L103.180225,169.882934 L104.491088,166.272793 L101.668088,166.272793 L101.668088,166.272793 Z M113.904529,166.272793 L113.904529,169.888055 L132.43208,169.888055 L132.43208,166.272793 L113.904529,166.272793 L113.904529,166.272793 Z"/>
    <g transform="translate(272.252 90.481)">
      <path d="M.273024944.053006055L.273024944 36.981886 37.009975 36.981886 37.009975.053006055.273024944.053006055.273024944.053006055zM5.32661164 5.24844919L31.8415341 5.24844919 31.8415341 9.91610128 20.9631965 9.91610128 20.9631965 26.7229475 31.9727961 26.7229475 31.9727961 31.7864429 5.45787363 31.7864429 5.45787363 26.7229475 15.9260175 26.7229475 15.9260175 9.91610128 5.32661164 9.91610128 5.32661164 5.24844919 5.32661164 5.24844919zM41.2427332.0694889695L41.2427332 36.9818754 77.9632755 36.9818754 77.9632755.0694889695 41.2427332.0694889695 41.2427332.0694889695zM62.4415449 4.98454311C64.7657905 4.98454311 73.1886311 10.0396202 73.1886206 19.1194471 73.1886206 28.1712483 63.8284854 32.0503331 62.4415449 32.0503278 58.1661843 32.0503278 46.0009909 32.0503331 46.0009804 32.0503278L46.0009804 5.11649087C46.0009804 5.11649087 57.6745189 4.98454311 62.4415449 4.98454311L62.4415449 4.98454311zM61.1125173 9.83362337C58.0553887 9.83361809 50.5623504 9.91609072 50.5623347 9.91609072L50.5623347 27.1847541 61.1125173 27.1847541C62.0019485 27.1847541 67.9873799 24.6934853 67.9873641 18.8885385 67.9873641 13.0656152 62.603076 9.83362337 61.1125173 9.83362337L61.1125173 9.83362337zM.272951437 40.184786L.272951437 77.0971724 36.9934937 77.0971724 36.9934937 40.184786.272951437 40.184786.272951437 40.184786zM5.24449939 45.3142552L32.0219458 45.3142552 32.0219458 49.9819073 9.87148461 49.9819073 9.87148461 56.1009848 26.7222429 56.1009848 26.7222429 61.1644801 9.87148461 61.1644801 9.87148461 67.0361556 32.0219458 67.0361556 32.0219458 71.9677032 5.24449939 71.9677032 5.24449939 45.3142552 5.24449939 45.3142552zM41.2425179 40.1848651L41.2425179 77.0972516 77.979468 77.0972516 77.979468 40.1848651 41.2425179 40.1848651 41.2425179 40.1848651zM59.6027891 43.8464155C67.7282319 43.8464208 74.32054 50.4731752 74.32054 58.6410584 74.32054 66.8089415 67.7282214 73.4356854 59.6027891 73.4357012 51.4773673 73.4356959 44.901446 66.8089468 44.901446 58.6410584 44.9014617 50.4731699 51.4773568 43.8464155 59.6027891 43.8464155L59.6027891 43.8464155zM59.6027891 48.9593913C54.2861481 48.9593913 49.9878692 53.2966357 49.9878482 58.6410584 49.9878482 63.9854758 54.2861586 68.322736 59.6027891 68.3227254 64.9194301 68.3227254 69.2341325 63.9854758 69.2341378 58.6410584 69.2341378 53.2966357 64.9194406 48.9594019 59.6027891 48.9593913L59.6027891 48.9593913z"/>
    </g>
    <g transform="translate(.314)">
      <path d="M30.174507 59.4337897C30.1479868 58.9272126 29.8022763 58.9117195 29.5086592 58.968997 26.5634904 59.5436498 23.617848 59.5037433 20.6655756 59.0328473 20.4586229 58.9999832 20.1361177 59.0356642 20.0290895 59.1680597 19.8046145 59.4445879 19.9859941 59.7497548 20.2208878 59.9558598 21.5672642 61.1370905 22.9269007 62.303767 24.2770658 63.4807723 24.8908202 64.0164576 25.4141216 63.7727936 25.9303194 63.3249024 27.225076 62.2018882 28.5274099 61.0873248 29.8145893 59.9558598 29.9798673 59.8107882 30.0731618 59.5849647 30.174507 59.4337897L30.174507 59.4337897zM23.658102 48.2238356C23.658102 45.8003409 23.6552605 43.3768462 23.6623642 40.9533515 23.6628378 40.7364482 23.7244026 40.519545 23.7575529 40.3026418 23.9422476 40.4331593 24.1501474 40.5406719 24.3083218 40.6970113 25.7115273 42.0848165 26.3612735 43.6712149 26.2485624 45.7275703 26.0728657 48.923372 26.1784732 52.1360753 26.2139914 55.3407973 26.2338816 57.1182771 26.398686 57.1901087 28.1376569 56.9600598 38.4208849 55.6004239 45.9587933 47.4566929 47.3264806 38.5744581 47.3847304 38.1983986 47.4406124 37.7589582 47.6650874 37.4838385 48.1978603 36.8321898 48.8206127 35.770209 49.5963301 36.0256102 50.2389727 36.2368796 49.8492197 37.4040257 49.7279842 38.145816 48.5146826 45.5552684 44.7156564 51.2351287 38.5127587 55.5919731 34.9277888 58.1103043 31.7841916 61.2460116 28.4426398 64.1042518 28.2039575 64.3084788 27.973326 64.5220957 27.7336966 64.7253838 24.49349 67.4826841 25.5400928 67.525877 22.1611284 64.6535522 19.0492609 62.0084594 16.0117448 59.2774503 12.9254503 56.6027798 12.3349011 56.0910384 11.6785249 55.650659 11.033988 55.2027679 4.98216102 50.9961595 1.2674313 45.3627785.341590329 38.0218713.322173716 37.8669404.286181944 37.7134179.274342545 37.5575481.223669919 36.9120027-.273584824 36.280542.208989065 35.6171561.746024187 36.0631692 1.2674313 36.5307788 1.82483019 36.9500312 2.54845423 37.4941673 2.4958873 38.3185874 2.6692161 39.0646031 4.17281973 45.5402448 7.61855831 50.6473303 13.4425953 54.0750588 16.1178258 55.6497201 19.0085334 56.6131085 22.0844091 57.0398727 23.3966881 57.2220339 23.6097973 57.0886994 23.6348968 55.7281245 23.6817808 53.2276338 23.6481569 50.7252652 23.6481569 48.2238356L23.658102 48.2238356zM28.9140373 6.31268256C28.9239824 3.97181767 27.2598365 2.31640459 24.9288957 2.34832974 22.748552 2.37837695 21.03989 4.03754593 20.9835345 6.17793964 20.9248111 8.42396805 22.6576255 10.2347815 24.9075848 10.2798523 27.1845379 10.3249231 28.9040922 8.62256128 28.9140373 6.31268256L28.9140373 6.31268256zM34.6229953 12.8174325C32.5714643 12.8174325 30.5199333 12.8033479 28.4688759 12.8211884 26.2388068 12.8399679 26.2170223 12.852644 26.20613 15.0000801 26.1881341 18.5202977 26.2013943 22.0400458 26.2018678 25.5602634 26.2018678 26.0292814 26.2127601 26.4992385 26.1952378 26.967787 26.1876606 27.1701362 26.249699 27.4513592 25.966027 27.5100452 25.8509481 27.533989 25.6610441 27.421312 25.5710647 27.3156773 24.5102546 26.063554 23.4641253 24.9072062 23.5967266 22.9987394 23.7913663 20.1963682 23.6729723 17.3705227 23.6407691 14.5550059 23.6218261 12.8906725 23.5815721 12.8456017 21.9197941 12.8329256 17.8958193 12.8024089 13.8718445 12.8188409 9.84786971 12.816024 9.29520658 12.816024 8.74112273 12.7869158 8.19130105 12.8207189 7.23183619 12.8803438 6.98652385 12.3747057 6.98084094 11.5277502 6.97468445 10.6197613 7.37106752 10.2850167 8.26375817 10.292998 11.1037931 10.3188198 13.9443016 10.3042657 16.7848102 10.3028572 17.3369997 10.3023877 17.8915571 10.3192893 18.4413788 10.2793828 19.6068492 10.1948751 19.7702329 10.0418221 19.3080228 9.02021723 18.8675972 8.04790853 18.7856685 7.0615152 18.7937193 6.05070851 18.8126624 3.51876219 20.098421 1.74832466 22.3393824.675076139 24.800083-.503337596 27.1504405-.116010372 29.1385123 1.66006101 31.0176616 3.33941795 31.8355273 5.44272215 31.0285539 7.99579541 30.3077713 10.2775049 30.3423423 10.2944064 32.7613683 10.3019182 35.8381912 10.311308 38.9154877 10.3263316 41.9927842 10.3009792 42.9304645 10.2934674 43.2098743 10.7047385 43.2108215 11.5812718 43.2117686 12.4817489 42.8793183 12.836212 41.960581 12.8225968 39.5155084 12.7864463 37.069015 12.8103902 34.6229953 12.8103902L34.6229953 12.8174325z"/>
      <path d="M16.6774031 34.6678523C16.6774031 36.6237374 16.6769296 38.5796225 16.6774031 40.5355076 16.6783503 42.2740199 16.5481169 42.8730861 18.7028875 42.7078264 19.6713503 42.6336474 20.1970196 42.9744954 20.1671843 44.0097154 20.1458734 44.7383601 19.9242398 45.2158289 19.0883783 45.213012 16.4841841 45.2045612 13.8804636 45.2050307 11.2762695 45.2078476 10.5166537 45.2087866 10.3741073 44.7308483 10.3864203 44.1219229 10.3996804 43.5021994 10.2907579 42.8073578 11.223229 42.7317703 11.3804562 42.7190941 11.5400513 42.7007841 11.6958578 42.7129908 14.4478076 42.9242602 14.1376153 42.2078222 14.1428247 40.2232984 14.1560848 35.2162137 14.157032 30.2095985 14.1451926 25.2025139 14.1395096 23.0259696 14.3905049 22.5475618 11.7578962 22.6297221 10.5265988 22.6682201 10.300703 22.2668083 10.3741073 21.0592863 10.415782 20.3780599 10.7288157 20.0855691 11.3842448 20.033456 13.5532226 19.8602151 15.373175 19.9916716 16.963443 22.0452102 22.4872328 29.1762565 28.2520728 36.1242026 33.9250391 43.1421024 34.3195278 43.6299 34.7239617 44.1106552 35.1009281 44.6111289 35.3102487 44.8895351 35.3822322 45.1801478 34.8774003 45.210195 33.5272353 45.2909469 32.3650799 45.2562048 31.3516274 43.9585413 27.2945023 38.766009 23.0962515 33.6819284 18.9510412 28.5574719 18.6545827 28.1912716 18.3799087 27.8072308 18.066875 27.4560541 17.7671014 27.118962 17.4796408 26.5677837 16.9653373 26.78187 16.6267305 26.9227162 16.6849803 27.4715472 16.6845068 27.8616913 16.6811917 30.1302551 16.683086 32.3992884 16.683086 34.6678523L16.6774031 34.6678523zM220.339638 21.8967582C220.339638 24.165322 220.347215 26.4338858 220.333008 28.7024496 220.33064 29.1512797 220.49355 29.7179512 219.970723 29.971005 219.375911 30.2588008 218.718588 30.2362654 218.200969 29.7794541 217.793694 29.4198266 217.458876 28.9752219 217.112692 28.5517441 214.877413 25.8179182 212.648291 23.0798668 210.417275 20.3427544 210.119869 19.9779626 209.827199 19.6089454 209.522216 19.2502569 209.320947 19.0131657 209.065689 18.7549475 208.749341 18.9310054 208.591166 19.019269 208.497872 19.3281918 208.484138 19.5441561 208.44341 20.1676356 208.453356 20.7944014 208.451935 21.4202283 208.447199 23.8451315 208.476561 26.2709736 208.429677 28.6949378 208.405998 29.9226478 207.957995 30.2484721 206.837988 30.1165461 206.289587 30.0522263 205.939141 29.8146656 205.938667 29.2503416 205.932037 24.166261 205.92446 19.0817109 205.948139 13.9976303 205.952401 13.0732093 206.662291 13.0703924 207.312985 13.2379994 208.138428 13.4506773 208.531022 14.2018574 209.017385 14.800454 211.144688 17.419725 213.244997 20.0615314 215.35904 22.6911311 215.702856 23.1193038 216.058038 23.5394951 216.427427 23.9456018 216.687421 24.2319892 216.96541 24.6164995 217.398732 24.4873905 217.866151 24.3474832 217.761491 23.8592161 217.764806 23.4991192 217.783749 21.3868947 217.77854 19.2746703 217.784696 17.1624458 217.787537 16.1460053 217.804586 15.1290952 217.802218 14.1121852 217.79985 13.2187504 218.393715 13.1497358 219.080873 13.1487968 219.788396 13.1478578 220.340112 13.2858872 220.338217 14.1525612 220.333482 16.7338037 220.336323 19.3150462 220.336323 21.8967582L220.339638 21.8967582zM82.0581616 21.6534228C82.0567408 24.0008605 82.0614766 26.3478287 82.0529522 28.6952665 82.0510579 29.2314212 82.1429317 29.8487974 81.4429864 30.0633532 80.8832196 30.2356551 80.3315037 30.1375322 79.9019703 29.7262611 79.5638371 29.4023147 79.2787443 29.0229688 78.9803915 28.6600549 76.635717 25.8121435 74.2929368 22.9628236 71.9506302 20.1130342 71.7020028 19.8097452 71.48179 19.4796955 71.2075895 19.2026978 71.0560452 19.0491754 70.8069443 18.874526 70.6222496 18.893775 70.2310759 18.9355594 70.2277609 19.3186612 70.2249194 19.611152 70.2045557 21.7238459 70.2012406 23.8360704 70.1927163 25.9487643 70.1884541 26.9656744 70.181824 27.9825844 70.1827712 28.9999639 70.1837183 29.9713336 69.5505473 30.1239171 68.7577811 30.1361237 67.9366005 30.1487999 67.6425098 29.729078 67.6429834 28.9764895 67.6448777 25.1426542 67.6368269 21.3088189 67.6354062 17.4749837 67.6349326 16.3796692 67.6008351 15.2815379 67.6642943 14.1895098 67.7197027 13.2383281 68.4906843 12.8195452 69.2943427 13.3322256 69.8081726 13.6594584 70.2216044 14.1702608 70.6141988 14.6519551 72.8968349 17.4491618 75.1557922 20.2651481 77.4332189 23.0661108 77.8267605 23.550622 78.2406659 24.0266823 78.7024024 24.4449957 78.9685521 24.6867818 79.3426771 24.5905369 79.3999798 24.2111909 79.4928007 23.5961623 79.5079551 22.96611 79.510323 22.342161 79.5216888 19.6815751 79.5335282 17.0214587 79.5079551 14.3613423 79.4994307 13.4383298 79.9218605 13.1430221 80.8041325 13.1397357 81.7044003 13.1364493 82.0837347 13.4627431 82.0709481 14.3768354 82.0373242 16.802208 82.0595823 19.2280501 82.0581616 21.6534228M92.4092531 49.653613C93.3507221 49.653613 94.3087662 49.7639425 95.230345 49.6291996 96.7940928 49.4000897 97.85585 48.1503138 97.8468521 46.7643866 97.8373806 45.2653129 96.6685951 43.997227 95.0200773 43.84793 93.9284847 43.7488681 92.8217377 43.8000423 91.7220944 43.8131879 88.8020251 43.8483995 89.1131645 43.4817297 89.1150588 46.4700179 89.1174267 50.1503308 88.8550656 49.6864771 92.4092531 49.653613M86.5804803 50.1090159C86.5819011 47.8404521 86.5549072 45.5714188 86.5913726 43.3033244 86.6159985 41.7535461 86.6979272 41.641808 88.1650655 41.623498 90.6101381 41.5939203 93.06042 41.5751408 95.5002833 41.7051888 98.2148206 41.849791 99.8003529 43.3498037 100.320813 46.0047558 100.734245 48.1160413 99.7288429 49.9827237 97.5361863 51.1724052 96.0638386 51.971473 96.0406334 51.9860271 96.9451635 53.3808746 97.8809495 54.8231403 98.7277033 56.3771441 100.831801 56.3996795 101.556846 56.4076608 101.638301 57.0269148 101.57721 57.6170607 101.516119 58.2123709 101.088953 58.3311512 100.578438 58.3851423 98.6874494 58.5846745 97.1559048 57.9170632 96.0235847 56.4419334 95.2137698 55.3869948 94.5303997 54.2367504 93.7627331 53.1484782 92.9311338 51.969595 91.1159172 51.462079 89.8036382 51.9864966 89.1576806 52.2447147 89.1306868 52.7893203 89.1231096 53.3390902 89.1060609 54.5902745 89.0871178 55.8423978 89.1089023 57.0935821 89.1240567 57.9776271 88.7499317 58.3471138 87.8420867 58.3705882 86.9247701 58.3940626 86.5610637 58.0485197 86.5705352 57.1494511 86.5956348 54.8029523 86.5790596 52.4559841 86.5804803 50.1090159M191.999528 15.6465175C187.883679 15.7070814 188.241703 14.9136474 188.222759 19.6296498 188.221812 19.9413895 188.233178 20.2568852 188.281009 20.5643995 188.361517 21.0831832 188.684496 21.4554868 189.207797 21.4714494 191.092156 21.5291964 193.000194 21.7808417 194.852349 21.3071288 196.498499 20.8859985 197.136879 19.8315294 196.981547 18.1502945 196.846577 16.6948832 195.960517 15.8141245 194.361724 15.6596631 193.581271 15.5840756 192.787558 15.6465175 191.999528 15.6465175L191.999528 15.6465175zM185.878559 21.4395243C185.878559 19.1718994 185.882347 16.9047441 185.876664 14.6371193 185.87477 13.741337 186.121029 13.102834 187.207886 13.1535386 189.957942 13.2817087 192.72552 12.9084661 195.460894 13.5164525 197.732164 14.0216211 199.25187 15.455436 199.536962 17.4906645 199.909667 20.1535979 199.164732 21.6324837 196.819584 22.8869544 195.32261 23.6879001 195.289933 23.7085576 196.18878 25.0771138 197.172398 26.574779 198.051828 28.2334785 200.266743 28.1884077 200.915542 28.1752621 200.943009 28.7161117 200.958164 29.1973364 200.978528 29.8616613 200.683963 30.1715231 199.979756 30.2109601 198.025308 30.3212896 196.399995 29.7081389 195.237366 28.1245574 194.450283 27.0522479 193.766913 25.9052898 193.013927 24.8076279 192.295513 23.7606707 189.830076 23.2062059 188.788209 23.8390751 188.327893 24.1188897 188.252595 24.5860298 188.244544 25.0611512 188.226075 26.1555266 188.240755 27.2508411 188.215182 28.3447471 188.17919 29.8926475 187.987392 30.1527436 187.024612 30.1222269 185.659766 30.0795035 185.902237 29.0532038 185.880926 28.2419293 185.84304 26.7574097 185.869087 25.2710121 185.868613 23.7855535 185.86814 23.0033873 185.868613 22.2216905 185.868613 21.4395243L185.878559 21.4395243zM115.001478 21.6024834C116.012562 21.5306518 117.047326 21.5696193 118.029522 21.3621058 119.779385 20.9921496 120.56931 19.8189002 120.36804 18.1592618 120.179084 16.5996241 119.271238 15.7489127 117.522796 15.6536067 116.118643 15.5766108 114.706913 15.5888175 113.300393 15.624968 111.776899 15.6639355 111.700653 15.7625278 111.576576 17.1803802 111.549583 17.4883641 111.556686 17.8001038 111.555266 18.110435 111.53727 22.0926284 111.664662 21.4790082 115.001478 21.6024834M109.23427 21.5499008C109.234743 19.2869708 109.20254 17.0231019 109.245636 14.7606414 109.274997 13.2272951 109.344139 13.1310502 110.877578 13.1704871 113.542864 13.2390323 116.224251 12.9000623 118.872487 13.5216638 121.165542 14.0596965 122.602845 15.4578304 122.860944 17.5442331 123.19813 20.2681998 122.481136 21.6799488 120.130779 22.919396 118.671218 23.6893555 118.65038 23.7025012 119.556805 25.1189451 120.532371 26.6424322 121.488047 28.1893936 123.655605 28.2199103 124.275515 28.2288306 124.248995 28.834939 124.250416 29.3030181 124.251837 29.853727 123.999421 30.1476262 123.412186 30.1964529 121.660429 30.3410551 120.148775 29.8762624 118.948733 28.5588803 117.939069 27.4513592 117.22539 26.1438364 116.41226 24.9015724 115.656907 23.748511 113.492191 23.2100087 112.24053 23.7917038 111.829466 23.9823158 111.65519 24.3203468 111.62346 24.7114299 111.567579 25.4100274 111.681237 26.1367941 111.531587 26.8100392 111.280118 27.9410347 112.447956 29.9903479 110.453728 30.0072494 108.160673 30.0269679 109.454956 27.8523016 109.29394 26.6921979 109.060467 25.0072071 109.23427 23.2668167 109.23427 21.5499008M167.145931 21.5922955C167.145931 19.2457968 167.181449 16.8988285 167.129355 14.5537383 167.106624 13.5246216 167.524318 13.1710974 168.519301 13.1800177 171.832912 13.2100649 175.146523 13.2049006 178.45966 13.1903464 179.404444 13.1861211 179.67012 13.660773 179.651651 14.5143013 179.635549 15.2734627 179.39071 15.6748745 178.55769 15.6664237 176.506633 15.6448273 174.455575 15.6617289 172.404044 15.6673627 169.714606 15.674405 169.658724 15.7340299 169.716501 18.4490764 169.759596 20.463178 169.83158 20.5523806 171.876954 20.5904091 173.453962 20.6199868 175.032391 20.5946345 176.610346 20.6030853 177.396008 20.6073107 178.257443 20.482427 178.222398 21.7153013 178.185933 22.9824481 177.244938 22.7120233 176.51421 22.7270469 174.858115 22.76085 173.199652 22.703103 171.544504 22.7533382 169.94287 22.8016954 169.816425 22.9646076 169.732602 24.5218978 169.720289 24.7561721 169.726446 24.9913853 169.726446 25.2256596 169.725499 27.5716889 169.752966 27.6158207 172.06449 27.6449289 174.115074 27.6712202 176.167079 27.6777931 178.217663 27.6519712 179.139241 27.6402341 179.726949 27.829907 179.696167 28.9332028 179.669646 29.8749948 179.212172 30.1407247 178.363524 30.1374383 175.049913 30.1238232 171.736302 30.1261706 168.423165 30.1397857 167.532842 30.1435416 167.140248 29.754806 167.147825 28.866066 167.168662 26.4416324 167.154928 24.0167292 167.154928 21.5922955L167.145931 21.5922955zM95.4327987 28.1294401C99.0736506 28.1397688 102.083699 25.1660347 102.032553 21.6096666 101.983301 18.1532993 99.0253458 15.2490493 95.5118859 15.2067954 91.9728528 15.1636026 88.8960299 18.219497 88.9064486 21.7660059 88.9168673 25.192326 91.9188652 28.1195808 95.4327987 28.1294401M95.4631076 30.3050454C89.9558929 30.5374417 86.6257068 25.5580568 86.5845057 21.8448798 86.5314652 17.0190174 90.7860715 13.0293122 95.3745489 12.9898753 100.167137 12.9480909 104.328923 16.9528196 104.353075 21.6411222 104.375333 25.9420976 100.766211 30.5397891 95.4631076 30.3050454M131.803479 41.1319915C133.935518 41.1728369 135.663123 41.3240119 137.044544 42.5761352 137.419616 42.9155747 138.085937 43.1620556 137.713233 43.8700429 137.380309 44.5024426 136.3356 44.8404736 135.732738 44.4151179 134.150521 43.2972681 132.421022 43.0916325 130.558447 43.3291932 129.903492 43.412762 129.329044 43.6348296 128.830842 44.0184009 127.485887 45.053621 127.670108 46.9278152 129.221069 47.6404973 129.996786 47.9973079 130.838804 48.2099857 131.706869 48.3428507 132.942902 48.5315847 134.190301 48.7578777 135.376609 49.14051 137.822155 49.9292491 138.89812 51.3424066 138.900014 53.5236457 138.901909 55.660753 137.75396 57.2682784 135.495003 58.0626513 133.128544 58.8945832 130.707624 58.8866019 128.329326 58.0997408 127.20032 57.7260287 126.193972 57.0818918 125.466085 56.1062967 125.124164 55.6480769 124.414747 55.1936129 125.277602 54.5842181 125.849208 54.1809283 126.371563 53.68468 127.0824 54.4875037 128.708186 56.3250779 130.879058 56.5034832 133.156012 56.3302423 133.805284 56.2809461 134.39536 56.0936205 134.954653 55.8095806 135.869602 55.3457269 136.350281 54.6100399 136.343178 53.5522845 136.336548 52.5658911 135.814667 51.947576 135.010535 51.5034408 133.741825 50.8020264 132.299313 50.7057815 130.915524 50.4715072 130.053616 50.3254966 129.214439 50.140049 128.410307 49.8400465 126.225701 49.0245466 125.428199 47.9282932 125.418254 45.8620785 125.407836 43.7174594 126.297685 42.5301254 128.464768 41.6371601 129.671913 41.1395033 130.932099 41.2118044 131.803479 41.1319915M119.972415 47.8250529C119.972415 49.3076945 120.022614 50.7922141 119.96247 52.2720389 119.820397 55.7875616 117.407528 58.221385 113.85997 58.4551898 112.121473 58.5697448 110.401919 58.5500263 108.849063 57.5598771 106.671561 56.1716024 105.695995 54.1039793 105.610277 51.647151 105.509879 48.7635585 105.601753 45.8733932 105.572865 42.9869837 105.563867 42.1381503 105.811547 41.6606814 106.753963 41.6597424 107.808143 41.6588035 108.090394 41.8602136 108.106023 43.0395663 108.142488 45.8480408 108.088027 48.6579238 108.145803 51.4659288 108.182742 53.2640661 108.757189 54.8706524 110.490477 55.7603313 113.321988 57.2138648 117.416999 55.9828684 117.436416 51.9058386 117.450623 49.0189597 117.473828 46.1325503 117.481405 43.2456714 117.483773 42.3822838 117.638159 41.6780525 118.731172 41.6625594 119.449114 41.6522306 119.976677 41.8245326 119.973836 42.6757135 119.968153 44.39216 119.972415 46.1086064 119.972415 47.8250529M160.369201 21.6460518C160.369201 23.675177 160.372042 25.7047717 160.367307 27.7338968 160.365886 28.2019759 160.350258 28.6705245 160.321843 29.1371951 160.271644 29.9564509 159.74266 30.119363 159.020457 30.1311002 158.263209 30.1428374 158.068095 29.7343832 158.063833 29.1085564 158.054362 27.7038496 158.079935 26.2982039 158.034471 24.8944362 157.979063 23.1779897 157.813311 22.9742321 156.148218 22.9235275 154.181458 22.863433 152.209961 22.8610856 150.243674 22.9291613 148.713076 22.9822134 148.537853 23.1977082 148.47913 24.7761253 148.427036 26.1794236 148.451189 27.5855388 148.454504 28.990715 148.456398 29.7221766 148.244709 30.1663118 147.370488 30.1325087 146.588614 30.1024615 146.197914 29.7846184 146.172341 29.0221706 146.154345 28.4761566 146.140138 27.9296731 146.140138 27.3836591 146.13777 23.4808092 146.136823 19.5779592 146.142979 15.6751093 146.143927 15.1295647 146.15766 14.5816728 146.211174 14.0394147 146.28079 13.3380003 146.783728 13.1872948 147.394641 13.1999709 148.046755 13.2135861 148.431298 13.4896447 148.435561 14.1797914 148.444085 15.7408375 148.425615 17.3028226 148.478182 18.8624602 148.532644 20.4920515 148.636357 20.5995641 150.242253 20.6272639 152.288574 20.6629449 154.337264 20.6662313 156.383586 20.6239775 157.854039 20.5934608 157.968644 20.472333 158.025473 18.9803016 158.078514 17.5770033 158.046784 16.1704186 158.047732 14.7652424 158.048679 13.9478646 158.049152 13.159595 159.231198 13.1933981 160.420821 13.2276707 160.349311 14.0788516 160.354994 14.8549145 160.372042 17.1187835 160.36115 19.3821829 160.36115 21.6460518L160.369201 21.6460518M73.3172756 51.1152216C73.3172756 49.47671 73.3286415 47.838668 73.3144342 46.2001565 73.2940704 43.8437985 73.2860196 43.8409816 71.0038571 43.8071785 70.2172475 43.7959108 69.4301643 43.788399 68.6435546 43.8038921 67.9488187 43.8175072 67.6466773 43.4944998 67.6509394 42.8165598 67.654728 42.2142072 67.7769106 41.7193674 68.5019554 41.6588035 68.8936027 41.6259393 69.2876179 41.6043429 69.6802124 41.6038734 72.9852989 41.602465 76.2903854 41.6057514 79.5949984 41.6109157 79.9094528 41.6113852 80.2243808 41.6278173 80.5383616 41.6456578 81.2113131 41.6836863 81.5120338 42.0592763 81.5186638 42.7085776 81.5248203 43.3508366 81.2681422 43.7639856 80.5700912 43.7776008 79.4690272 43.7987277 78.3655952 43.8470849 77.2664254 43.8062395 76.24729 43.768211 75.8689028 44.2062429 75.8774272 45.1879413 75.9015796 48.0743508 75.8797951 50.9607602 75.8769536 53.8471696 75.8760065 54.9396671 75.8523277 56.0321646 75.8850044 57.1237232 75.9115247 58.0115241 75.5487655 58.3922785 74.6319225 58.3739685 73.7998495 58.3575364 73.2954911 58.1734973 73.3158549 57.1997801 73.3584767 55.1725329 73.3286415 53.1434078 73.3286415 51.1152216L73.3172756 51.1152216M132.863768 22.978927C132.863768 21.0296147 132.860926 19.0803024 132.865189 17.1314596 132.867083 16.0948311 132.444653 15.5314461 131.309018 15.5863761 130.368023 15.6319164 129.421818 15.5657187 128.478455 15.5755779 127.58387 15.5844982 127.196485 15.1657153 127.229161 14.2863651 127.258523 13.5107717 127.635489 13.1642899 128.409786 13.1741491 129.353149 13.1858863 130.29746 13.1666373 131.240823 13.1652289 133.915106 13.1624119 136.58939 13.1619424 139.263673 13.160534 140.070647 13.160534 140.886618 13.103726 140.874305 14.2962243 140.863886 15.3567967 140.674929 15.5314461 139.178429 15.5755779 138.706748 15.589193 138.234593 15.5741694 137.762911 15.5760474 135.245381 15.5882541 135.240172 15.5887236 135.236857 18.1882761 135.232121 21.6188216 135.246802 25.0498365 135.226438 28.480382 135.22265 29.0663025 135.394558 29.7710033 134.589005 30.0686584 133.664111 30.4104453 132.931489 29.933446 132.89976 28.8263943 132.844351 26.8784905 132.884605 24.9282393 132.884605 22.978927L132.863768 22.978927M148.535343 51.1133436C148.535343 49.4753016 148.550024 47.837729 148.532028 46.199687 148.505508 43.8484934 148.495089 43.8456765 146.208191 43.807648 145.421581 43.7945023 144.634972 43.7921549 143.848362 43.7963803 143.133736 43.8006056 142.886056 43.3874566 142.882741 42.7559959 142.879426 42.1245351 143.153152 41.7076302 143.829892 41.656456 144.300153 41.620775 144.772309 41.5982396 145.243517 41.5977701 148.232728 41.5940142 151.222413 41.5921362 154.211624 41.6048124 154.758605 41.6071598 155.313636 41.6376765 155.850671 41.734391 156.435537 41.8400257 156.509415 42.3390909 156.495681 42.8207851 156.481947 43.3231368 156.322352 43.7597602 155.705756 43.7729059 154.605166 43.7963803 153.502208 43.8391036 152.403038 43.8001362 151.410896 43.7644551 150.936847 44.18136 150.931637 45.1541382 150.926902 46.0898269 150.911274 47.0259851 150.908906 47.9616737 150.901802 50.9250791 150.907485 53.888954 150.886174 56.8523594 150.882385 57.3753685 150.966682 57.9716177 150.334932 58.2749066 149.468761 58.6908726 148.602117 58.2096479 148.577018 57.1960242 148.525872 55.169716 148.561863 53.1410603 148.561863 51.1133436L148.535343 51.1133436M34.8035698 20.0249583C36.1437897 20.0249583 37.4840097 20.0216719 38.8242296 20.0263668 39.5989998 20.0287142 39.9366595 20.4043042 39.942816 21.1888179 39.9499196 22.0418768 39.4825001 22.1935213 38.7565082 22.25878 36.139054 22.4935238 36.1366861 22.5141813 36.130056 25.0461276 36.1224788 27.7818315 36.1471048 30.5180049 36.111113 33.2532393 36.0964321 34.359352 35.7663497 34.5734383 34.6766514 34.5349403 33.8777288 34.5063016 33.5779553 34.1494911 33.5864796 33.3682638 33.6125263 31.1015779 33.5926361 28.8348921 33.5907418 26.5677367 33.5902682 26.0207837 33.5931097 25.4733612 33.5893211 24.9264083 33.5717988 22.4742748 33.5722723 22.4606597 31.0566369 22.2559631 30.3870005 22.2015026 29.8125529 22.1850705 29.7699311 21.2869408 29.7258885 20.3648673 30.1492654 20.0094652 31.0192244 20.0146296 32.2808307 20.0216719 33.5419635 20.0165075 34.8035698 20.0165075L34.8035698 20.0249583"/>
    </g>
  </g>
</svg>
