<?xml version="1.0" encoding="utf-8"?>
<!-- Generator: Adobe Illustrator 20.1.0, SVG Export Plug-In . SVG Version: 6.00 Build 0)  -->
<svg version="1.1" id="Layer_1" xmlns="http://www.w3.org/2000/svg" xmlns:xlink="http://www.w3.org/1999/xlink" x="0px" y="0px"
	 viewBox="0 0 625 625" style="enable-background:new 0 0 625 625;" xml:space="preserve">
<g transform="translate(0.000000,625.000000) scale(0.100000,-0.100000)">
	<path d="M2939,6246c-2-2-42-6-89-10c-47-3-96-8-110-11c-14-2-43-6-65-9c-154-19-360-67-540-128c-861-288-1556-939-1903-1785
		c-28-66-64-168-82-225c-17-56-36-117-41-135c-6-17-12-44-15-60c-3-15-9-41-14-58c-9-29-42-213-55-305c-34-253-24-701,21-922
		c2-13,7-39,10-58c7-48,41-193,60-260c191-668,597-1256,1147-1663c263-195,583-361,877-457c176-57,402-111,527-126c32-3,60-8,63-9
		c29-17,530-27,675-13c303,29,595,98,870,207c475,188,918,509,1246,901c329,394,566,883,663,1370c23,117,26,132,32,175
		c3,22,7,54,9,70c14,96,20,224,19,410c-1,192-4,266-19,365c-3,19-7,53-10,75c-13,118-71,362-119,505c-172,518-446,949-832,1310
		c-115,108-145,134-249,212c-318,242-697,428-1073,529c-129,35-121,33-267,59c-98,17-149,24-250,36C3383,6241,2943,6250,2939,6246z
		 M3659,4919c142-29,377-153,536-283c95-78,110-91,193-175c322-325,519-719,569-1136c9-78,9-297-1-405c-55-614-392-1142-891-1398
		c-142-72-352-132-464-132h-31v198v197l91,29c108,34,254,107,348,173c151,107,319,307,391,466c54,120,101,267,115,362
		c3,22,7,54,10,70c18,117,22,289,10,410c-48,494-358,917-855,1166c-53,26-108,52-123,58l-27,11v204v205l38-4
		C3588,4932,3629,4925,3659,4919z M2285,4535c71-35,123-89,159-165c26-56,31-76,30-145c0-99-30-172-99-240c-68-68-142-99-235-99
		c-85,1-97,3-163,34c-60,28-121,91-155,160c-23,48-27,67-27,145c0,77,4,98,27,148C1903,4547,2112,4620,2285,4535z M2219,2336
		c47-10,115-50,158-94c162-161,117-443-87-547c-189-96-408-7-485,197c-23,62-17,183,12,249C1884,2291,2050,2371,2219,2336z"/>
</g>
</svg>
