<svg xmlns="http://www.w3.org/2000/svg" width="267" height="200" viewBox="0 0 267 200">
  <defs>
    <linearGradient id="a" x1="50%" x2="50%" y1="0%" y2="100%">
      <stop stop-color="#A0A4EC" offset="0%"/>
      <stop stop-color="#676BD3" offset="100%"/>
    </linearGradient>
  </defs>
  <path fill="url(#a)" fill-rule="evenodd" d="M379.225462,402.290919 L536.225462,655.290919 C536.662274,655.994827 537.587011,656.211351 538.290919,655.774538 C538.994827,655.337726 539.211351,654.412989 538.774538,653.709081 L381.774538,400.709081 C381.337726,400.005173 380.412989,399.788649 379.709081,400.225462 C379.005173,400.662274 378.788649,401.587011 379.225462,402.290919 Z M389.225462,402.290919 L546.225462,655.290919 C546.662274,655.994827 547.587011,656.211351 548.290919,655.774538 C548.994827,655.337726 549.211351,654.412989 548.774538,653.709081 L391.774538,400.709081 C391.337726,400.005173 390.412989,399.788649 389.709081,400.225462 C389.005173,400.662274 388.788649,401.587011 389.225462,402.290919 Z M399.225462,402.290919 L556.225462,655.290919 C556.662274,655.994827 557.587011,656.211351 558.290919,655.774538 C558.994827,655.337726 559.211351,654.412989 558.774538,653.709081 L401.774538,400.709081 C401.337726,400.005173 400.412989,399.788649 399.709081,400.225462 C399.005173,400.662274 398.788649,401.587011 399.225462,402.290919 Z M409.225462,402.290919 L566.225462,655.290919 C566.662274,655.994827 567.587011,656.211351 568.290919,655.774538 C568.994827,655.337726 569.211351,654.412989 568.774538,653.709081 L411.774538,400.709081 C411.337726,400.005173 410.412989,399.788649 409.709081,400.225462 C409.005173,400.662274 408.788649,401.587011 409.225462,402.290919 Z M419.225462,402.290919 L576.225462,655.290919 C576.662274,655.994827 577.587011,656.211351 578.290919,655.774538 C578.994827,655.337726 579.211351,654.412989 578.774538,653.709081 L421.774538,400.709081 C421.337726,400.005173 420.412989,399.788649 419.709081,400.225462 C419.005173,400.662274 418.788649,401.587011 419.225462,402.290919 Z M429.225462,402.290919 L586.225462,655.290919 C586.662274,655.994827 587.587011,656.211351 588.290919,655.774538 C588.994827,655.337726 589.211351,654.412989 588.774538,653.709081 L431.774538,400.709081 C431.337726,400.005173 430.412989,399.788649 429.709081,400.225462 C429.005173,400.662274 428.788649,401.587011 429.225462,402.290919 Z M439.225462,402.290919 L596.225462,655.290919 C596.662274,655.994827 597.587011,656.211351 598.290919,655.774538 C598.994827,655.337726 599.211351,654.412989 598.774538,653.709081 L441.774538,400.709081 C441.337726,400.005173 440.412989,399.788649 439.709081,400.225462 C439.005173,400.662274 438.788649,401.587011 439.225462,402.290919 Z M449.225462,402.290919 L606.225462,655.290919 C606.662274,655.994827 607.587011,656.211351 608.290919,655.774538 C608.994827,655.337726 609.211351,654.412989 608.774538,653.709081 L451.774538,400.709081 C451.337726,400.005173 450.412989,399.788649 449.709081,400.225462 C449.005173,400.662274 448.788649,401.587011 449.225462,402.290919 Z M459.225462,402.290919 L616.225462,655.290919 C616.662274,655.994827 617.587011,656.211351 618.290919,655.774538 C618.994827,655.337726 619.211351,654.412989 618.774538,653.709081 L461.774538,400.709081 C461.337726,400.005173 460.412989,399.788649 459.709081,400.225462 C459.005173,400.662274 458.788649,401.587011 459.225462,402.290919 Z M469.225462,402.290919 L626.225462,655.290919 C626.662274,655.994827 627.587011,656.211351 628.290919,655.774538 C628.994827,655.337726 629.211351,654.412989 628.774538,653.709081 L471.774538,400.709081 C471.337726,400.005173 470.412989,399.788649 469.709081,400.225462 C469.005173,400.662274 468.788649,401.587011 469.225462,402.290919 Z M479.225462,402.290919 L636.225462,655.290919 C636.662274,655.994827 637.587011,656.211351 638.290919,655.774538 C638.994827,655.337726 639.211351,654.412989 638.774538,653.709081 L481.774538,400.709081 C481.337726,400.005173 480.412989,399.788649 479.709081,400.225462 C479.005173,400.662274 478.788649,401.587011 479.225462,402.290919 Z M489.225462,402.290919 L646.225462,655.290919 C646.662274,655.994827 647.587011,656.211351 648.290919,655.774538 C648.994827,655.337726 649.211351,654.412989 648.774538,653.709081 L491.774538,400.709081 C491.337726,400.005173 490.412989,399.788649 489.709081,400.225462 C489.005173,400.662274 488.788649,401.587011 489.225462,402.290919 Z M499.225462,402.290919 L656.225462,655.290919 C656.662274,655.994827 657.587011,656.211351 658.290919,655.774538 C658.994827,655.337726 659.211351,654.412989 658.774538,653.709081 L501.774538,400.709081 C501.337726,400.005173 500.412989,399.788649 499.709081,400.225462 C499.005173,400.662274 498.788649,401.587011 499.225462,402.290919 Z M509.225462,402.290919 L666.225462,655.290919 C666.662274,655.994827 667.587011,656.211351 668.290919,655.774538 C668.994827,655.337726 669.211351,654.412989 668.774538,653.709081 L511.774538,400.709081 C511.337726,400.005173 510.412989,399.788649 509.709081,400.225462 C509.005173,400.662274 508.788649,401.587011 509.225462,402.290919 Z M519.225462,402.290919 L676.225462,655.290919 C676.662274,655.994827 677.587011,656.211351 678.290919,655.774538 C678.994827,655.337726 679.211351,654.412989 678.774538,653.709081 L521.774538,400.709081 C521.337726,400.005173 520.412989,399.788649 519.709081,400.225462 C519.005173,400.662274 518.788649,401.587011 519.225462,402.290919 Z" transform="translate(-379 -400)"/>
</svg>
