<svg width="23" height="23" viewBox="0 0 23 23" xmlns="http://www.w3.org/2000/svg" xmlns:sketch="http://www.bohemiancoding.com/sketch/ns"><title>icon-play</title><desc>Created with Sketch.</desc><path d="M11.5.26c3.057 0 5.641 1.067 7.752 3.203 2.112 2.135 3.167 4.696 3.167 7.682 0 2.987-1.062 5.547-3.185 7.683-2.123 2.135-4.702 3.203-7.735 3.203-3.033 0-5.612-1.062-7.735-3.185s-3.185-4.678-3.185-7.665 1.05-5.553 3.15-7.7c2.1-2.147 4.69-3.22 7.77-3.22zm0 20.195c2.52 0 4.702-.898 6.545-2.695 1.843-1.797 2.765-3.978 2.765-6.545 0-2.567-.898-4.772-2.695-6.615-1.797-1.843-3.99-2.765-6.58-2.765s-4.795.916-6.615 2.748c-1.82 1.832-2.73 4.019-2.73 6.563 0 2.543.904 4.731 2.713 6.563 1.808 1.832 4.007 2.748 6.597 2.748zm4.165-12.95c.373 0 .7.14.98.42.28.28.42.601.42.963s-.14.682-.42.962c-.28.28-.607.42-.98.42s-.694-.128-.963-.385c-.268-.257-.402-.583-.402-.98s.134-.729.402-.998c.268-.268.589-.403.963-.403zm-8.365 0c.373 0 .7.14.98.42.28.28.42.601.42.963s-.14.682-.42.962c-.28.28-.601.42-.963.42s-.682-.14-.963-.42c-.28-.28-.42-.601-.42-.962 0-.362.14-.682.42-.963.28-.28.595-.42.945-.42zm9.24 7.14c-.607 1.12-1.312 1.954-2.117 2.502-.805.548-1.779.823-2.923.823-2.147 0-3.827-1.108-5.04-3.325l1.085-.595c.443.793 1.015 1.4 1.715 1.82.7.42 1.447.63 2.24.63.793 0 1.546-.21 2.257-.63.712-.42 1.277-1.027 1.698-1.82l1.085.595z" sketch:type="MSShapeGroup" fill="#fff"/></svg>