<svg width="23" height="24" viewBox="0 0 23 24" xmlns="http://www.w3.org/2000/svg" xmlns:sketch="http://www.bohemiancoding.com/sketch/ns"><title>icon-playing</title><desc>Created with Sketch.</desc><path d="M14.671 6.799c-.513 0-.934.16-1.265.479-.33.319-.496.735-.496 1.248 0 .467.171.866.513 1.196.342.33.752.496 1.23.496.456 0 .852-.165 1.188-.496.336-.33.504-.723.504-1.179 0-.49-.162-.903-.487-1.239-.325-.336-.721-.504-1.188-.504zm-6.921 0c-.524 0-.954.16-1.29.479-.336.319-.504.729-.504 1.23 0 .479.165.892.496 1.239.33.347.729.521 1.196.521.479 0 .894-.174 1.248-.521.353-.347.53-.755.53-1.222 0-.456-.168-.857-.504-1.205-.336-.347-.726-.521-1.171-.521zm8.716 5.845c-.296 1.379-.914 2.458-1.854 3.239-.94.78-2.099 1.171-3.478 1.171-1.287 0-2.398-.396-3.333-1.188-.934-.792-1.532-1.854-1.794-3.187l-1.538.017-.017.291c0 .399.131.934.393 1.606s.57 1.242.923 1.709c1.447 1.948 3.333 2.922 5.657 2.922 1.652 0 3.13-.649 4.435-1.948 1.305-1.299 2.031-2.843 2.179-4.631h-1.572zm-5.127-11.689c3.042 0 5.634 1.077 7.776 3.23 2.142 2.153 3.213 4.757 3.213 7.81 0 2.883-1.003 5.389-3.008 7.52-1.025 1.082-2.262 1.94-3.708 2.572-1.447.632-2.911.948-4.392.948-1.424 0-2.86-.328-4.307-.983-1.447-.655-2.689-1.541-3.726-2.657-1.96-2.119-2.939-4.603-2.939-7.451 0-3.042 1.082-5.634 3.247-7.776 2.165-2.142 4.779-3.213 7.844-3.213z" sketch:type="MSShapeGroup" fill="#fff"/></svg>