<?xml version="1.0" encoding="UTF-8"?>
<svg width="44px" height="20px" viewBox="0 0 44 20" version="1.1" xmlns="http://www.w3.org/2000/svg" xmlns:xlink="http://www.w3.org/1999/xlink">
    <!-- Generator: Sketch 43 (38999) - http://www.bohemiancoding.com/sketch -->
    <title>DooDoo</title>
    <desc>Created with Sketch.</desc>
    <defs></defs>
    <g id="Page-1" stroke="none" stroke-width="1" fill="none" fill-rule="evenodd">
        <g id="Home" transform="translate(-5.000000, -5.000000)" fill="#000000">
            <g id="Header" transform="translate(5.000000, 5.000000)">
                <g id="DooDoo">
                    <path d="M6.24466178,19.7333333 C5.55863896,19.7333333 5.18622657,19.3584 5.18622657,18.6677333 L5.18622657,6.9856 C5.18622657,6.29493333 5.55863896,5.92 6.24466178,5.92 L11.1448248,5.92 C15.2217604,5.92 18.1226569,9.01813333 18.1226569,12.8266667 C18.1226569,16.6549333 15.2217604,19.7333333 11.1448248,19.7333333 L6.24466178,19.7333333 Z M8.79274654,16.6352 L10.6940098,16.6352 C13.0656887,16.6352 14.5161369,15.0762667 14.5161369,12.8266667 C14.5161369,10.5770667 13.0656887,8.9984 10.6940098,9.01813333 L8.79274654,9.01813333 L8.79274654,16.6352 Z M25.0024857,19.9504 C21.6507742,19.9504 19.2398941,17.5626667 19.2398941,14.6026667 C19.2398941,11.6426667 21.6507742,9.25493333 25.0024857,9.25493333 C28.3737979,9.25493333 30.7650774,11.6426667 30.7650774,14.6026667 C30.7650774,17.5626667 28.3737979,19.9504 25.0024857,19.9504 Z M25.0024857,17.1482667 C26.4137327,17.1482667 27.4721679,16.0629333 27.4721679,14.6026667 C27.4721679,13.1424 26.4137327,12.0768 25.0024857,12.0768 C23.5912388,12.0768 22.5524042,13.1621333 22.5524042,14.6026667 C22.5524042,16.0432 23.5912388,17.1482667 25.0024857,17.1482667 Z M37.5273024,19.9504 C34.1755909,19.9504 31.7647107,17.5626667 31.7647107,14.6026667 C31.7647107,11.6426667 34.1755909,9.25493333 37.5273024,9.25493333 C40.8986145,9.25493333 43.2898941,11.6426667 43.2898941,14.6026667 C43.2898941,17.5626667 40.8986145,19.9504 37.5273024,19.9504 Z M37.5273024,17.1482667 C38.9385493,17.1482667 39.9969845,16.0629333 39.9969845,14.6026667 C39.9969845,13.1424 38.9385493,12.0768 37.5273024,12.0768 C36.1160554,12.0768 35.0772209,13.1621333 35.0772209,14.6026667 C35.0772209,16.0432 36.1160554,17.1482667 37.5273024,17.1482667 Z" id="Doo"></path>
                    <path d="M1.10611247,13.8133333 C0.42008965,13.8133333 0.0476772616,13.4384 0.0476772616,12.7477333 L0.0476772616,1.0656 C0.0476772616,0.374933333 0.42008965,0 1.10611247,0 L6.00627547,0 C10.0832111,0 12.9841076,3.09813333 12.9841076,6.90666667 C12.9841076,10.7349333 10.0832111,13.8133333 6.00627547,13.8133333 L1.10611247,13.8133333 Z M3.65419723,10.7152 L5.55546047,10.7152 C7.92713936,10.7152 9.37758761,9.15626667 9.37758761,6.90666667 C9.37758761,4.65706667 7.92713936,3.0784 5.55546047,3.09813333 L3.65419723,3.09813333 L3.65419723,10.7152 Z M19.8639364,14.0304 C16.5122249,14.0304 14.1013447,11.6426667 14.1013447,8.68266667 C14.1013447,5.72266667 16.5122249,3.33493333 19.8639364,3.33493333 C23.2352486,3.33493333 25.6265281,5.72266667 25.6265281,8.68266667 C25.6265281,11.6426667 23.2352486,14.0304 19.8639364,14.0304 Z M19.8639364,11.2282667 C21.2751834,11.2282667 22.3336186,10.1429333 22.3336186,8.68266667 C22.3336186,7.2224 21.2751834,6.1568 19.8639364,6.1568 C18.4526895,6.1568 17.4138549,7.24213333 17.4138549,8.68266667 C17.4138549,10.1232 18.4526895,11.2282667 19.8639364,11.2282667 Z M32.3887531,14.0304 C29.0370416,14.0304 26.6261614,11.6426667 26.6261614,8.68266667 C26.6261614,5.72266667 29.0370416,3.33493333 32.3887531,3.33493333 C35.7600652,3.33493333 38.1513447,5.72266667 38.1513447,8.68266667 C38.1513447,11.6426667 35.7600652,14.0304 32.3887531,14.0304 Z M32.3887531,11.2282667 C33.8,11.2282667 34.8584352,10.1429333 34.8584352,8.68266667 C34.8584352,7.2224 33.8,6.1568 32.3887531,6.1568 C30.9775061,6.1568 29.9386716,7.24213333 29.9386716,8.68266667 C29.9386716,10.1232 30.9775061,11.2282667 32.3887531,11.2282667 Z" id="Doo-Copy-5"></path>
                </g>
            </g>
        </g>
    </g>
</svg>